<svg width="380" height="363" viewBox="0 0 380 356" fill="none" xmlns="http://www.w3.org/2000/svg">
<g clip-path="url(#clip0)">
<path d="M145 157.5C109.5 148.541 20.5 157.5 20.5 157.5L90 423L279.5 366C279.5 366 273 267 231 216.5C189 166 180.5 166.46 145 157.5Z" fill="#78D0D3"/>
<path d="M-48.9999 406L551.5 515.5C551.5 515.5 368 380.5 281.5 307C195 233.5 185 271.5 128 235.5C71.0001 199.5 103.312 128 56.5 50C9.68799 -28 -85.0011 -29.9991 -152 -32C-218.999 -34.001 -48.9999 406 -48.9999 406Z" fill="#403D52"/>
</g>
<defs>
<clipPath id="clip0">
<rect width="380" height="363" fill="white"/>
</clipPath>
</defs>
</svg>
