<svg width="1440" height="1024" viewBox="0 0 1440 1024" fill="none" xmlns="http://www.w3.org/2000/svg" preserveAspectRatio="none">
<g clip-path="url(#clip0)">
<rect width="1440" height="1024" fill="#F2EFEF"/>
<path d="M145 825.5C109.5 816.541 20.5 825.5 20.5 825.5L90 1091L279.5 1034C279.5 1034 273 935 231 884.5C189 834 180.5 834.46 145 825.5Z" fill="#78D0D3"/>
<path d="M1417.5 913.982C1453 905.022 1542 913.982 1542 913.982L1472.5 1179.48L1283 1122.48C1283 1122.48 1289.5 1023.48 1331.5 972.982C1373.5 922.482 1382 922.942 1417.5 913.982Z" fill="#78D0D3"/>
<path d="M-48.9999 1074L551.5 1183.5C551.5 1183.5 368 1048.5 281.5 975C195 901.5 185 939.5 128 903.5C71.0001 867.5 103.312 796 56.5 718C9.68799 640 -85.0011 638.001 -152 636C-218.999 633.999 -48.9999 1074 -48.9999 1074Z" fill="#403D52"/>
<path d="M1554.5 1131.01L954 1240.51C954 1240.51 1137.5 1105.51 1224 1032.01C1310.5 958.507 1320.5 996.507 1377.5 960.507C1434.5 924.507 1402.19 853.007 1449 775.007C1495.81 697.007 1590.5 695.008 1657.5 693.007C1724.5 691.006 1554.5 1131.01 1554.5 1131.01Z" fill="#403D52"/>
<path d="M1143.86 248.497C592.466 326.639 593.5 248.497 648.829 112.757C704.159 -22.9821 68.9996 -170.748 1012.5 -92.9999C1701.71 -36.2057 1621.45 -103.874 1528.12 -144.474L1457.47 -170.748C1457.47 -170.748 1493.68 -159.454 1528.12 -144.474L1819.72 -36.0232C1819.72 -36.0232 1820.57 140.787 1795.48 170.057C1770.39 199.327 1695.26 170.355 1143.86 248.497Z" fill="#403D52"/>
</g>
<defs>
<clipPath id="clip0">
<rect width="1440" height="1024" fill="white"/>
</clipPath>
</defs>
</svg>
