<svg width="500px" height="100%" viewBox="0 0 649 628" fill="none" xmlns="http://www.w3.org/2000/svg">
<g id="Hero" clip-path="url(#clip0)">
<g id="background_cloud">
<g id="Vector" opacity="0.24">
<path d="M622.482 411.409C603.841 438.156 577.693 458.739 557.014 484.033C526.65 521.118 507.005 569.267 465.892 594.005C446.448 605.687 423.946 610.91 401.891 615.978C366.446 624.137 329.72 632.295 293.997 625.404C266.615 620.135 241.765 606.321 217.424 592.692L198.165 581.875C193.918 579.465 189.625 577.101 185.331 574.69L172.821 567.675C136.095 546.969 99.5999 525.368 68.6496 496.828C34.1625 465.151 6.74885 423.462 1.0499 376.905C-5.56026 323.101 19.7375 266.593 64.2479 235.674C88.6654 218.676 117.778 209.22 141.763 191.589C179.617 163.775 200.451 119.289 226.444 80.2111C274.615 7.75667 367.25 -26.9176 445.259 24.5839C475.576 44.5788 498.511 74.2775 515.36 106.479C529.6 133.629 540.071 163.08 559.006 187.185C580.628 214.721 612.103 233.788 631.023 263.255C659.363 307.355 652.506 368.36 622.482 411.409Z" fill="#78D0D3"/>
<path d="M622.482 411.409C603.841 438.156 577.693 458.739 557.014 484.033C526.65 521.118 507.005 569.267 465.892 594.005C446.448 605.687 423.946 610.91 401.891 615.978C366.446 624.137 329.72 632.295 293.997 625.404C266.615 620.135 241.765 606.321 217.424 592.692L198.165 581.875C193.918 579.465 189.625 577.101 185.331 574.69L172.821 567.675C136.095 546.969 99.5999 525.368 68.6496 496.828C34.1625 465.151 6.74885 423.462 1.0499 376.905C-5.56026 323.101 19.7375 266.593 64.2479 235.674C88.6654 218.676 117.778 209.22 141.763 191.589C179.617 163.775 200.451 119.289 226.444 80.2111C274.615 7.75667 367.25 -26.9176 445.259 24.5839C475.576 44.5788 498.511 74.2775 515.36 106.479C529.6 133.629 540.071 163.08 559.006 187.185C580.628 214.721 612.103 233.788 631.023 263.255C659.363 307.355 652.506 368.36 622.482 411.409Z" fill="url(#paint0_linear)"/>
</g>
</g>
<g id="character">
<path id="Vector_2" opacity="0.42" d="M222.367 576.282C220.097 578.77 223.819 582.231 227.001 583.437C247.759 591.384 269.795 595.468 292.021 595.489L288.237 601.933C323.075 611.611 359.865 611.803 394.803 602.489L389.428 594.145L420.641 592.6C425.599 592.368 442.989 594.407 446.279 590.004C455.746 577.318 417.212 576.823 413.073 576.653C371.961 574.933 330.822 574.268 289.658 574.66C278.435 574.763 267.212 574.943 255.989 575.201C250.677 575.386 225.672 572.759 222.367 576.282Z" fill="#78D0D3"/>
<path id="Vector_3" d="M397.845 461.953C397.011 478.435 396.017 494.948 394.864 511.492C394.521 519.854 393.436 528.169 391.621 536.339C390.403 541.196 388.685 545.914 386.493 550.416C385.551 552.347 384.208 554.449 382.092 554.665C379.42 554.943 377.567 552.085 376.609 549.566C371.837 537.204 371.837 523.668 371.528 510.441C371.353 503.601 371.08 496.756 370.709 489.906C370.262 481.639 369.366 472.692 363.775 466.573C362.076 464.719 360.006 463.205 358.339 461.304C351.528 453.578 353.566 440.552 360.902 433.274C366.601 427.634 383.142 420.186 391.127 424.853C400.61 430.385 398.293 453.037 397.845 461.953Z" fill="#403D52"/>
<path id="Vector_4" d="M350.03 433.66C352.418 437.446 353.538 441.895 353.227 446.362C352.841 459.789 344.871 471.672 340.871 484.513C334.879 503.905 338.215 524.688 338.817 545.038C339.096 547.84 338.748 550.669 337.798 553.32C337.293 554.634 336.401 555.764 335.24 556.559C334.079 557.354 332.703 557.776 331.296 557.77C329.258 557.392 327.423 556.295 326.122 554.68C316.3 544.173 316.624 528.149 315.002 513.871C313.18 497.971 308.253 482.612 304.052 467.175C302.153 460.207 300.376 453.068 300.824 445.867C301.272 438.666 304.299 431.265 310.245 427.186C321.041 419.8 342.323 422.612 350.03 433.66Z" fill="#403D52"/>
<path id="Vector_5" opacity="0.52" d="M165.98 411.302L514.542 411.302V394.583L165.98 394.583V411.302Z" fill="#78D0D3"/>
<path id="Vector_6" d="M234.012 373.073L462.016 373.073C472.729 373.073 481.414 364.384 481.414 353.665V195.421C481.414 184.703 472.729 176.013 462.016 176.013L234.012 176.013C223.299 176.013 214.614 184.703 214.614 195.421V353.665C214.614 364.384 223.299 373.073 234.012 373.073Z" fill="#78D0D3"/>
<path id="Vector_7" d="M234.012 373.073L462.016 373.073C472.729 373.073 481.414 364.384 481.414 353.665V195.421C481.414 184.703 472.729 176.013 462.016 176.013L234.012 176.013C223.299 176.013 214.614 184.703 214.614 195.421V353.665C214.614 364.384 223.299 373.073 234.012 373.073Z" fill="url(#paint1_linear)"/>
<path id="Vector_8" d="M300.623 206.872H247.417V210.781H300.623V206.872Z" fill="url(#paint2_linear)"/>
<path id="Vector_9" d="M279.897 214.428H247.417V218.09H279.897V214.428Z" fill="url(#paint3_linear)"/>
<path id="Vector_10" d="M395.189 214.428H292.994V218.121H395.189V214.428Z" fill="url(#paint4_linear)"/>
<path id="Vector_11" d="M462.264 214.428H404.749V218.121H462.264V214.428Z" fill="url(#paint5_linear)"/>
<path id="Vector_12" d="M308.963 222.015H264.314V225.878H308.963V222.015Z" fill="url(#paint6_linear)"/>
<path id="Vector_13" d="M331.852 229.555H278.646V233.465H331.852V229.555Z" fill="url(#paint7_linear)"/>
<path id="Vector_14" d="M379.93 229.555H335.327V233.897H379.93V229.555Z" fill="url(#paint8_linear)"/>
<path id="Vector_15" d="M319.651 237.111H278.569V240.773H319.651V237.111Z" fill="url(#paint9_linear)"/>
<path id="Vector_16" d="M408.378 237.111H323.589V241.175H408.378V237.111Z" fill="url(#paint10_linear)"/>
<path id="Vector_17" d="M300.623 247.34H247.417V251.249H300.623V247.34Z" fill="url(#paint11_linear)"/>
<path id="Vector_18" d="M279.897 254.896H247.417V258.558H279.897V254.896Z" fill="url(#paint12_linear)"/>
<path id="Vector_19" d="M395.189 254.896H292.994V258.589H395.189V254.896Z" fill="url(#paint13_linear)"/>
<path id="Vector_20" d="M462.264 254.896H404.749V258.589H462.264V254.896Z" fill="url(#paint14_linear)"/>
<path id="Vector_21" d="M308.963 262.452H264.314V266.315H308.963V262.452Z" fill="url(#paint15_linear)"/>
<path id="Vector_22" d="M331.852 270.023H278.646V273.933H331.852V270.023Z" fill="url(#paint16_linear)"/>
<path id="Vector_23" d="M379.93 270.023H335.327V274.365H379.93V270.023Z" fill="url(#paint17_linear)"/>
<path id="Vector_24" d="M319.651 277.58H278.569V281.242H319.651V277.58Z" fill="url(#paint18_linear)"/>
<path id="Vector_25" d="M408.378 277.58H323.589V281.644H408.378V277.58Z" fill="url(#paint19_linear)"/>
<path id="Vector_26" d="M300.623 287.793H247.417V291.703H300.623V287.793Z" fill="url(#paint20_linear)"/>
<path id="Vector_27" d="M279.897 295.35H247.417V299.012H279.897V295.35Z" fill="url(#paint21_linear)"/>
<path id="Vector_28" d="M395.189 295.35H292.994V299.043H395.189V295.35Z" fill="url(#paint22_linear)"/>
<path id="Vector_29" d="M462.264 295.35H404.749V299.043H462.264V295.35Z" fill="url(#paint23_linear)"/>
<path id="Vector_30" d="M308.963 302.905H264.314V306.768H308.963V302.905Z" fill="url(#paint24_linear)"/>
<path id="Vector_31" d="M331.852 310.461H278.646V314.371H331.852V310.461Z" fill="url(#paint25_linear)"/>
<path id="Vector_32" d="M379.93 310.461H335.327V314.803H379.93V310.461Z" fill="url(#paint26_linear)"/>
<path id="Vector_33" d="M319.651 318.033H278.569V321.695H319.651V318.033Z" fill="url(#paint27_linear)"/>
<path id="Vector_34" d="M408.378 318.033H323.589V322.097H408.378V318.033Z" fill="url(#paint28_linear)"/>
<path id="Vector_35" d="M412.224 383.751C413.32 386.841 414.355 390.086 413.676 393.269C413.43 394.371 412.985 395.418 412.363 396.36C409.274 401.15 401.953 401.891 396.918 399.017C391.884 396.143 389.042 390.642 387.652 385.11C387.104 383.258 386.92 381.316 387.111 379.393C387.559 376.04 389.783 373.212 392.1 370.74C395.189 367.526 400.857 363.323 405.011 367.186C408.749 370.647 410.571 379.131 412.224 383.751Z" fill="url(#paint29_linear)"/>
<path id="Vector_36" d="M285.905 382.824C285.229 384.1 284.914 385.537 284.994 386.98C285.182 387.908 285.549 388.79 286.075 389.576C287.375 391.909 289.11 393.971 291.187 395.649C293.283 397.329 295.938 398.152 298.616 397.951C302.57 397.518 305.705 394.382 307.805 390.998C309.988 387.782 311.136 383.976 311.095 380.089C310.974 378.041 310.402 376.045 309.419 374.244C308.436 372.444 307.068 370.883 305.411 369.674C302.431 367.511 296.222 365.548 292.855 368.021C289.488 370.493 287.589 378.837 285.905 382.824Z" fill="url(#paint30_linear)"/>
<path id="Vector_37" d="M377.119 269.328C377.667 269.169 378.245 269.138 378.807 269.237C379.369 269.336 379.901 269.563 380.362 269.9C381.006 270.634 381.382 271.566 381.428 272.542C381.821 274.511 381.9 276.529 381.659 278.522C381.401 280.503 380.429 282.322 378.926 283.637C377.755 284.499 376.436 285.138 375.034 285.522C373.981 286 372.783 286.044 371.698 285.645C371.225 285.323 370.83 284.899 370.541 284.405C370.252 283.91 370.078 283.357 370.03 282.787C368.81 276.807 370.679 270.503 377.119 269.328Z" fill="url(#paint31_linear)"/>
<path id="Vector_38" d="M320.886 267.258C320.273 267.103 319.631 267.103 319.018 267.258C318.348 267.574 317.783 268.075 317.388 268.702C316.994 269.329 316.788 270.056 316.794 270.796C316.694 272.25 316.787 273.71 317.072 275.138C317.338 277.53 318.318 279.786 319.883 281.613C320.67 282.492 321.731 283.08 322.894 283.282C324.057 283.483 325.254 283.287 326.292 282.725C332.856 278.182 326.678 268.525 320.886 267.258Z" fill="url(#paint32_linear)"/>
<path id="Vector_39" d="M362.462 310.446C362.767 311.846 362.85 313.285 362.709 314.711C362.138 318.666 358.2 321.432 354.246 321.927C350.292 322.421 346.338 321.092 342.647 319.624C341.514 319.242 340.465 318.644 339.558 317.863C338.653 316.917 338.037 315.732 337.782 314.448C337.339 312.221 337.204 309.944 337.381 307.68L337.628 299.707C337.552 298.147 337.86 296.593 338.524 295.179C340.068 292.537 343.605 292.089 346.678 291.888C350.709 291.718 356.779 291.888 359.435 295.566C362.092 299.243 361.783 306.166 362.462 310.446Z" fill="url(#paint33_linear)"/>
<path id="Vector_40" d="M374.879 245.362C376.08 248.726 376.502 252.319 376.115 255.87C375.771 264.069 374.915 272.238 373.551 280.33C372.532 286.403 370.926 292.924 366.122 296.756C364.749 297.68 363.453 298.713 362.246 299.846C361.412 300.742 360.825 301.855 360.053 302.828C356.145 307.727 348.269 307.727 342.894 304.466C337.52 301.206 334.076 295.612 330.925 290.173C327.45 284.178 324.006 277.904 323.388 270.997C322.878 265.527 324.16 259.764 322.075 254.68C320.531 250.941 317.334 247.943 316.624 243.972C316.349 241.296 316.676 238.593 317.581 236.06C318.832 231.564 320.747 226.372 325.303 225.151C328.624 224.255 332.052 225.955 335.496 226.063C339.883 226.217 344.346 223.76 348.516 225.151C353.875 226.944 356.238 233.124 361.582 235.133C366.926 237.142 372.393 239.676 374.879 245.362Z" fill="#403D52"/>
<path id="Vector_41" d="M392.514 324.669L392.514 324.67C397.291 328.625 403.685 336.57 408.086 345.17C410.287 349.468 411.986 353.924 412.738 358.122C413.491 362.32 413.294 366.247 411.718 369.5C410.06 372.91 406.867 374.629 403.623 376.261C403.473 376.337 403.322 376.413 403.171 376.489C400.094 378.032 397.028 379.57 395.397 382.503L395.397 382.504C394.379 384.349 393.812 386.774 393.527 389.49C393.241 392.209 393.238 395.231 393.355 398.279C393.457 400.902 393.648 403.547 393.829 406.036C393.858 406.44 393.887 406.839 393.915 407.235C394.117 410.065 394.282 412.643 394.251 414.699V414.699C394.205 418.49 394.094 422.435 392.204 425.671C390.971 427.61 389.351 429.272 387.445 430.554L387.445 430.554L387.44 430.557C375.889 438.944 360.449 439.352 346.165 438.255C340.648 437.83 334.773 436.989 329.579 435.065C324.387 433.141 319.888 430.138 317.108 425.395C314.235 420.481 313.882 414.874 313.984 409.062C314.006 407.811 314.049 406.551 314.092 405.286C314.25 400.687 314.409 396.032 313.56 391.594C313.409 390.111 312.722 388.733 311.629 387.72L311.618 387.709L311.604 387.701C310.565 387.078 309.382 386.735 308.17 386.707C300.422 385.841 292.028 383.589 287.823 377.102C283.814 370.826 284.861 362.649 286.883 355.437C290.693 341.856 297.936 328.457 310.149 321.532C317.442 317.407 325.895 315.91 334.219 314.782L334.22 314.782C354.374 312.032 376.908 311.719 392.514 324.669Z" fill="white" stroke="black" stroke-width="0.3"/>
<path id="Vector_42" d="M335.929 429.705L336.037 447.274C336.114 447.95 335.985 448.634 335.667 449.236C335.153 449.871 334.409 450.276 333.597 450.364C328.84 451.476 323.867 450.843 318.987 450.858C314.106 450.874 308.84 451.739 305.334 455.154C310.662 459.094 317.535 460.176 324.13 460.949C333.89 462.113 343.672 462.885 353.474 463.266C359.828 463.735 366.215 463.403 372.486 462.277C377.999 461.17 383.167 458.759 387.559 455.247C383.25 450.611 376.115 450.704 369.814 450.704C363.683 450.702 357.557 450.351 351.466 449.653C350.778 449.663 350.095 449.53 349.46 449.264C348.825 448.999 348.251 448.605 347.775 448.108C347.262 447.192 347.056 446.136 347.188 445.095C347.305 441.194 347.797 437.313 348.655 433.506C348.838 432.25 349.344 431.062 350.122 430.06C351.498 428.884 353.226 428.199 355.034 428.113C362.185 426.921 369.196 425.005 375.961 422.396C378.747 421.472 381.338 420.042 383.606 418.177C389.691 412.646 389.428 403.112 388.023 395C376.824 401.504 364.178 405.105 351.234 405.476C342.385 405.723 323.188 401.922 316.964 410.451C313.875 414.763 317.164 418.749 320.578 421.731C322.06 422.998 335.929 429.535 335.929 429.705Z" fill="url(#paint34_linear)"/>
<path id="Vector_43" d="M367.636 349.864H330.879C316.557 349.864 304.948 361.48 304.948 375.808V386.764C304.948 401.092 316.557 412.707 330.879 412.707H367.636C381.957 412.707 393.567 401.092 393.567 386.764V375.808C393.567 361.48 381.957 349.864 367.636 349.864Z" fill="#78D0D3"/>
<path id="Vector_44" d="M367.636 349.864H330.879C316.557 349.864 304.948 361.48 304.948 375.808V386.764C304.948 401.092 316.557 412.707 330.879 412.707H367.636C381.957 412.707 393.567 401.092 393.567 386.764V375.808C393.567 361.48 381.957 349.864 367.636 349.864Z" fill="url(#paint35_linear)"/>
<path id="Vector_45" d="M367.636 355.644H330.879C316.557 355.644 304.948 367.259 304.948 381.587V392.543C304.948 406.871 316.557 418.487 330.879 418.487H367.636C381.957 418.487 393.567 406.871 393.567 392.543V381.587C393.567 367.259 381.957 355.644 367.636 355.644Z" fill="#78D0D3"/>
<path id="Vector_46" d="M362.895 390.333C360.242 391.509 357.45 392.34 354.586 392.805C346.863 394.227 337.844 393.918 332.284 388.308C331.413 387.456 330.706 386.45 330.199 385.342C328.655 381.587 330.678 377.059 333.998 374.68C337.319 372.3 341.535 371.667 345.597 371.466C350.57 371.219 360.022 370.369 364.362 373.722C369.551 377.739 368.748 387.582 362.895 390.333Z" fill="url(#paint36_linear)"/>
<path id="Vector_47" d="M347.775 480.572H347.79C351.125 480.572 353.829 477.867 353.829 474.531V386.732C353.829 383.396 351.125 380.691 347.79 380.691H347.775C344.44 380.691 341.736 383.396 341.736 386.732V474.531C341.736 477.867 344.44 480.572 347.775 480.572Z" fill="white"/>
<path id="Vector_48" d="M384.98 550.169C388.069 552.718 388.841 557.138 390.2 560.985C392.084 566.239 395.575 571.014 396.038 576.576C396.24 578.226 395.967 579.898 395.25 581.397C394.56 582.557 393.577 583.515 392.401 584.176C391.225 584.838 389.897 585.18 388.547 585.168C385.845 585.112 383.21 584.309 380.933 582.85C376.908 580.451 373.585 577.035 371.296 572.945C370.129 570.944 369.382 568.725 369.103 566.424C368.47 559.455 375.698 542.752 384.98 550.169Z" fill="#78D0D3"/>
<path id="Vector_49" d="M390.741 579.651C390.959 580.057 391.072 580.511 391.072 580.972C391.072 581.433 390.959 581.887 390.741 582.293C390.384 582.676 389.912 582.931 389.397 583.019C387.27 583.431 385.065 583.028 383.22 581.891C381.399 580.774 379.727 579.429 378.246 577.889C375.954 575.877 373.925 573.582 372.208 571.06C370.487 568.497 369.787 565.382 370.246 562.329C371.883 553.954 379.266 561.464 381.984 564.554C385.864 568.964 388.839 574.093 390.741 579.651Z" fill="#403D52"/>
<path id="Vector_50" d="M324.516 550.338C321.427 552.888 320.655 557.307 319.296 561.155C317.411 566.409 313.921 571.199 313.458 576.746C313.256 578.4 313.529 580.078 314.245 581.582C314.938 582.739 315.921 583.694 317.097 584.353C318.273 585.012 319.601 585.351 320.948 585.337C323.652 585.289 326.29 584.487 328.562 583.019C332.591 580.626 335.916 577.208 338.199 573.115C339.369 571.115 340.116 568.895 340.393 566.594C341.01 559.625 333.782 542.86 324.516 550.338Z" fill="#78D0D3"/>
<path id="Vector_51" d="M317.967 580.253C317.753 580.661 317.642 581.114 317.642 581.574C317.642 582.034 317.753 582.488 317.967 582.895C318.33 583.278 318.807 583.533 319.326 583.622C321.454 584.017 323.653 583.615 325.504 582.494C327.316 581.37 328.981 580.026 330.461 578.492C332.763 576.477 334.797 574.177 336.516 571.646C338.232 569.088 338.932 565.979 338.477 562.931C336.825 554.541 329.458 562.051 326.724 565.157C322.848 569.569 319.873 574.697 317.967 580.253Z" fill="#403D52"/>
<path id="Vector_52" d="M357.613 513.393C355.125 514.575 352.378 515.107 349.628 514.938C346.585 515.113 343.532 514.889 340.547 514.273C339.54 514.075 338.597 513.634 337.798 512.991C337.131 512.38 336.604 511.631 336.253 510.797C333.736 505.234 330.894 493.707 334.802 489.025C339.265 483.648 356.98 482.705 362.601 488.345C368.053 493.63 364.099 509.576 357.613 513.393Z" fill="#78D0D3"/>
<path id="Vector_53" d="M357.613 513.393C355.125 514.575 352.378 515.107 349.628 514.938C346.585 515.113 343.532 514.889 340.547 514.273C339.54 514.075 338.597 513.634 337.798 512.991C337.131 512.38 336.604 511.631 336.253 510.797C333.736 505.234 330.894 493.707 334.802 489.025C339.265 483.648 356.98 482.705 362.601 488.345C368.053 493.63 364.099 509.576 357.613 513.393Z" fill="url(#paint37_linear)"/>
<path id="Vector_54" d="M345.319 565.667H353.381V513.625H345.319V565.667Z" fill="white"/>
<path id="Vector_55" d="M381.227 569.994C383.019 571.461 384.764 573.3 387.065 573.578C388.733 573.764 390.401 573.053 392.1 573.053C394.336 573.21 396.444 574.158 398.046 575.726C399.56 576.925 400.696 578.534 401.32 580.362C402.571 584.626 398.772 589.293 394.339 589.726C389.907 590.158 385.644 587.13 383.698 583.143C383.279 582.051 382.729 581.013 382.061 580.053C381.42 579.364 380.675 578.78 379.853 578.322C373.294 574.252 366.06 571.39 358.493 569.87C357.18 569.607 355.574 569.484 354.74 570.519C354.336 571.112 354.116 571.81 354.107 572.528C353.765 575.606 353.626 578.703 353.69 581.799C353.649 582.394 353.761 582.99 354.014 583.529C354.415 584.086 354.906 584.571 355.466 584.966C356.359 585.916 356.919 587.13 357.064 588.425C357.209 589.721 356.93 591.028 356.269 592.152C354.872 594.367 352.731 596.01 350.23 596.787C347.265 597.884 343.528 598.07 341.319 595.798C340.539 594.92 340.018 593.843 339.814 592.686C339.609 591.53 339.729 590.339 340.161 589.247C341.051 587.065 342.695 585.277 344.794 584.209C345.524 583.933 346.157 583.449 346.616 582.819C346.872 582.236 346.968 581.596 346.894 580.964L346.678 574.073C346.744 573.547 346.683 573.013 346.5 572.516C346.317 572.019 346.018 571.572 345.628 571.214C345.011 570.893 344.303 570.789 343.62 570.921C332.269 571.797 321.398 575.874 312.268 582.68C313.936 583.978 313.643 586.79 312.145 588.273C310.495 589.634 308.375 590.289 306.245 590.097C303.904 590.121 301.609 589.448 299.65 588.165C298.67 587.524 297.871 586.642 297.33 585.603C296.789 584.563 296.524 583.402 296.562 582.231C296.719 581.045 297.182 579.92 297.905 578.967C298.628 578.013 299.586 577.264 300.685 576.792C302.895 575.867 305.325 575.604 307.681 576.035C308.894 576.293 310.135 576.392 311.373 576.329C312.761 576.04 314.082 575.49 315.265 574.706C325.961 568.663 337.825 564.976 350.061 563.89C360.316 562.978 372.934 563.195 381.227 569.994Z" fill="white"/>
<path id="Vector_56" d="M301.133 494.31H391.281C401.986 494.31 410.664 485.627 410.664 474.917V473.697C410.664 462.987 401.986 454.304 391.281 454.304H301.133C290.428 454.304 281.751 462.987 281.751 473.697V474.917C281.751 485.627 290.428 494.31 301.133 494.31Z" fill="#78D0D3"/>
<path id="Vector_57" d="M301.133 494.31H391.281C401.986 494.31 410.664 485.627 410.664 474.917V473.697C410.664 462.987 401.986 454.304 391.281 454.304H301.133C290.428 454.304 281.751 462.987 281.751 473.697V474.917C281.751 485.627 290.428 494.31 301.133 494.31Z" fill="url(#paint38_linear)"/>
</g>
<g id="clouds">
<g id="middle_right">
<path id="Vector_58" opacity="0.52" d="M418.679 244.991L612.165 244.991C622.025 244.991 630.019 236.993 630.019 227.128V122.225C630.019 112.359 622.025 104.362 612.165 104.362L418.679 104.362C408.819 104.362 400.825 112.359 400.825 122.225V227.128C400.825 236.993 408.819 244.991 418.679 244.991Z" fill="#78D0D3"/>
<path id="Vector_59" d="M418.679 244.991L612.165 244.991C622.025 244.991 630.019 236.993 630.019 227.128V122.225C630.019 112.359 622.025 104.362 612.165 104.362L418.679 104.362C408.819 104.362 400.825 112.359 400.825 122.225V227.128C400.825 236.993 408.819 244.991 418.679 244.991Z" fill="url(#paint39_linear)" fill-opacity="0.5"/>
</g>
<g id="middle_left">
<path id="Vector_60" opacity="0.52" d="M94.272 288.875H263.016C273.371 288.875 281.766 280.477 281.766 270.117V80.119C281.766 69.7589 273.371 61.3604 263.016 61.3604L94.272 61.3604C83.917 61.3604 75.5226 69.7589 75.5226 80.119L75.5226 270.117C75.5226 280.477 83.917 288.875 94.272 288.875Z" fill="#78D0D3"/>
<path id="Vector_61" d="M94.272 288.875H263.016C273.371 288.875 281.766 280.477 281.766 270.117V80.119C281.766 69.7589 273.371 61.3604 263.016 61.3604L94.272 61.3604C83.917 61.3604 75.5226 69.7589 75.5226 80.119L75.5226 270.117C75.5226 280.477 83.917 288.875 94.272 288.875Z" fill="url(#paint40_linear)"/>
<path id="Vector_62" d="M107.708 125.162L146.211 105.321V111.069L113.778 127.248V127.433L146.211 143.689V149.437L107.708 129.596V125.162Z" fill="#403D52"/>
<path id="Vector_63" d="M151.539 152.836L174.706 92.5732H180.343L157.176 152.836H151.539Z" fill="#403D52"/>
<path id="Vector_64" d="M224.127 129.89L185.609 149.653V143.766L218.289 127.51V127.248L185.609 110.992V105.321L224.127 125.084V129.89Z" fill="#403D52"/>
</g>
<g id="bottom_left">
<path id="Vector_65" d="M97.5923 370.044H215.942C225.043 370.044 232.421 362.662 232.421 353.557V330.997C232.421 321.891 225.043 314.51 215.942 314.51H97.5923C88.4911 314.51 81.1132 321.891 81.1132 330.997V353.557C81.1132 362.662 88.4911 370.044 97.5923 370.044Z" fill="white"/>
<g id="group" opacity="0.52">
<path id="Vector_66" opacity="0.52" d="M139.678 326.748H104.465V329.328H139.678V326.748Z" fill="#403D52"/>
<path id="Vector_67" opacity="0.52" d="M125.963 331.754H104.465V334.18H125.963V331.754Z" fill="#403D52"/>
<path id="Vector_68" opacity="0.52" d="M202.258 331.754H134.627V334.196H202.258V331.754Z" fill="#403D52"/>
<path id="Vector_69" opacity="0.52" d="M145.207 336.761H115.646V339.326H145.207V336.761Z" fill="#403D52"/>
<path id="Vector_70" opacity="0.52" d="M160.342 341.768H125.129V344.348H160.342V341.768Z" fill="#403D52"/>
<path id="Vector_71" opacity="0.52" d="M192.158 341.768H162.644V344.642H192.158V341.768Z" fill="#403D52"/>
<path id="Vector_72" opacity="0.52" d="M152.28 346.758H125.083V349.184H152.28V346.758Z" fill="#403D52"/>
<path id="Vector_73" opacity="0.52" d="M210.984 346.758H154.875V349.447H210.984V346.758Z" fill="#403D52"/>
<path id="Vector_74" opacity="0.52" d="M139.678 353.526H104.465V356.107H139.678V353.526Z" fill="#403D52"/>
<path id="Vector_75" opacity="0.52" d="M125.963 358.532H104.465V360.958H125.963V358.532Z" fill="#403D52"/>
<path id="Vector_76" opacity="0.52" d="M202.258 358.532H134.627V360.974H202.258V358.532Z" fill="#403D52"/>
</g>
</g>
<g id="bottom_right">
<path id="Vector_77" d="M479.298 361.963H576.859C586.259 361.963 593.879 354.339 593.879 344.935V281.35C593.879 271.946 586.259 264.322 576.859 264.322H479.298C469.898 264.322 462.278 271.946 462.278 281.35V344.935C462.278 354.339 469.898 361.963 479.298 361.963Z" fill="white"/>
<g id="Group" opacity="0.52">
<path id="Vector_78" opacity="0.52" d="M512.102 289.586H476.889V292.166H512.102V289.586Z" fill="#403D52"/>
<path id="Vector_79" opacity="0.52" d="M498.387 294.577H476.889V297.003H498.387V294.577Z" fill="#403D52"/>
<path id="Vector_80" opacity="0.52" d="M574.682 294.577H507.052V297.019H574.682V294.577Z" fill="#403D52"/>
<path id="Vector_81" opacity="0.52" d="M517.631 299.599H488.07V302.164H517.631V299.599Z" fill="#403D52"/>
<path id="Vector_82" opacity="0.52" d="M532.766 304.59H497.553V307.17H532.766V304.59Z" fill="#403D52"/>
<path id="Vector_83" opacity="0.52" d="M564.566 304.59H535.052V307.464H564.566V304.59Z" fill="#403D52"/>
<path id="Vector_84" opacity="0.52" d="M524.689 309.597H497.492V312.023H524.689V309.597Z" fill="#403D52"/>
<path id="Vector_85" opacity="0.52" d="M583.408 309.597H527.299V312.285H583.408V309.597Z" fill="#403D52"/>
<path id="Vector_86" opacity="0.52" d="M512.102 316.365H476.889V318.945H512.102V316.365Z" fill="#403D52"/>
<path id="Vector_87" opacity="0.52" d="M498.387 321.355H476.889V323.781H498.387V321.355Z" fill="#403D52"/>
<path id="Vector_88" opacity="0.52" d="M574.682 321.355H507.052V323.797H574.682V321.355Z" fill="#403D52"/>
<path id="Vector_89" opacity="0.52" d="M517.631 326.362H488.07V328.927H517.631V326.362Z" fill="#403D52"/>
<path id="Vector_90" opacity="0.52" d="M532.766 331.368H497.553V333.949H532.766V331.368Z" fill="#403D52"/>
<path id="Vector_91" opacity="0.52" d="M564.566 331.368H535.052V334.242H564.566V331.368Z" fill="#403D52"/>
<path id="Vector_92" opacity="0.52" d="M524.689 336.375H497.492V338.801H524.689V336.375Z" fill="#403D52"/>
<path id="Vector_93" opacity="0.52" d="M583.408 336.375H527.299V339.064H583.408V336.375Z" fill="#403D52"/>
</g>
</g>
<g id="top_right" opacity="0.52">
<path id="Vector_94" opacity="0.52" d="M359.512 142.266L481.074 142.266C487.267 142.266 492.287 137.244 492.287 131.048V65.1297C492.287 58.9341 487.267 53.9116 481.074 53.9116L359.512 53.9116C353.319 53.9116 348.299 58.9341 348.299 65.1297V131.048C348.299 137.244 353.319 142.266 359.512 142.266Z" fill="#403D52"/>
<path id="Vector_95" d="M359.512 142.266L481.074 142.266C487.267 142.266 492.287 137.244 492.287 131.048V65.1297C492.287 58.9341 487.267 53.9116 481.074 53.9116L359.512 53.9116C353.319 53.9116 348.299 58.9341 348.299 65.1297V131.048C348.299 137.244 353.319 142.266 359.512 142.266Z" fill="url(#paint41_linear)"/>
<path id="Vector_96" opacity="0.52" d="M393.042 65.9956H366.57V67.9426H393.042V65.9956Z" fill="white"/>
<path id="Vector_97" opacity="0.52" d="M382.725 69.7656H366.57V71.589H382.725V69.7656Z" fill="white"/>
<path id="Vector_98" opacity="0.52" d="M440.085 69.7656H389.242V71.6044H440.085V69.7656Z" fill="white"/>
<path id="Vector_99" opacity="0.52" d="M473.444 69.7656H444.826V71.6044H473.444V69.7656Z" fill="white"/>
<path id="Vector_100" opacity="0.52" d="M397.181 73.5205H374.972V75.4366H397.181V73.5205Z" fill="white"/>
<path id="Vector_101" opacity="0.52" d="M408.579 77.2905H382.107V79.2375H408.579V77.2905Z" fill="white"/>
<path id="Vector_102" opacity="0.52" d="M432.471 77.2905H410.293V79.4538H432.471V77.2905Z" fill="white"/>
<path id="Vector_103" opacity="0.52" d="M402.494 81.0459H382.061V82.8692H402.494V81.0459Z" fill="white"/>
<path id="Vector_104" opacity="0.52" d="M446.649 81.0459H404.471V83.0701H446.649V81.0459Z" fill="white"/>
<path id="Vector_105" opacity="0.52" d="M393.042 86.1289H366.57V88.0759H393.042V86.1289Z" fill="white"/>
<path id="Vector_106" opacity="0.52" d="M382.725 89.8838H366.57V91.7071H382.725V89.8838Z" fill="white"/>
<path id="Vector_107" opacity="0.52" d="M440.085 89.8838H389.242V91.7226H440.085V89.8838Z" fill="white"/>
<path id="Vector_108" opacity="0.52" d="M473.444 89.8838H444.826V91.7226H473.444V89.8838Z" fill="white"/>
<path id="Vector_109" opacity="0.52" d="M397.181 93.6392H374.972V95.5552H397.181V93.6392Z" fill="white"/>
<path id="Vector_110" opacity="0.52" d="M408.579 97.4092H382.107V99.3561H408.579V97.4092Z" fill="white"/>
<path id="Vector_111" opacity="0.52" d="M432.471 97.4092H410.293V99.5725H432.471V97.4092Z" fill="white"/>
<path id="Vector_112" opacity="0.52" d="M402.494 101.164H382.061V102.987H402.494V101.164Z" fill="white"/>
<path id="Vector_113" opacity="0.52" d="M446.649 101.164H404.471V103.188H446.649V101.164Z" fill="white"/>
<path id="Vector_114" opacity="0.52" d="M393.042 106.248H366.57V108.194H393.042V106.248Z" fill="white"/>
<path id="Vector_115" opacity="0.52" d="M382.725 110.018H366.57V111.841H382.725V110.018Z" fill="white"/>
<path id="Vector_116" opacity="0.52" d="M440.085 110.018H389.242V111.857H440.085V110.018Z" fill="white"/>
<path id="Vector_117" opacity="0.52" d="M473.444 110.018H444.826V111.857H473.444V110.018Z" fill="white"/>
<path id="Vector_118" opacity="0.52" d="M397.181 113.773H374.972V115.689H397.181V113.773Z" fill="white"/>
<path id="Vector_119" opacity="0.52" d="M408.579 117.528H382.107V119.475H408.579V117.528Z" fill="white"/>
<path id="Vector_120" opacity="0.52" d="M432.471 117.528H410.293V119.691H432.471V117.528Z" fill="white"/>
<path id="Vector_121" opacity="0.52" d="M402.494 121.298H382.061V123.121H402.494V121.298Z" fill="white"/>
<path id="Vector_122" opacity="0.52" d="M446.649 121.298H404.471V123.322H446.649V121.298Z" fill="white"/>
</g>
</g>
</g>
<defs>
<linearGradient id="paint0_linear" x1="1.47853e-05" y1="366.5" x2="649" y2="377" gradientUnits="userSpaceOnUse">
<stop stop-color="#78D0D3"/>
<stop offset="0.46875" stop-color="#C1E9EB" stop-opacity="0.458333"/>
<stop offset="1" stop-color="#01D1C1"/>
</linearGradient>
<linearGradient id="paint1_linear" x1="83434.9" y1="51439" x2="82066.9" y2="11050.6" gradientUnits="userSpaceOnUse">
<stop stop-color="white" stop-opacity="0"/>
<stop offset="0.95" stop-color="white"/>
</linearGradient>
<linearGradient id="paint2_linear" x1="276.051" y1="100.993" x2="273.114" y2="257.555" gradientUnits="userSpaceOnUse">
<stop stop-color="white"/>
<stop offset="0.99" stop-color="white"/>
</linearGradient>
<linearGradient id="paint3_linear" x1="8529.64" y1="1617.67" x2="8528.85" y2="1246.53" gradientUnits="userSpaceOnUse">
<stop stop-color="white" stop-opacity="0"/>
<stop offset="0.99" stop-color="white"/>
</linearGradient>
<linearGradient id="paint4_linear" x1="31674" y1="1625.98" x2="31673.7" y2="1251.67" gradientUnits="userSpaceOnUse">
<stop stop-color="#403D52"/>
<stop offset="0.99" stop-color="white"/>
</linearGradient>
<linearGradient id="paint5_linear" x1="21393.5" y1="1621.92" x2="21393.1" y2="1247.68" gradientUnits="userSpaceOnUse">
<stop stop-color="#403D52"/>
<stop offset="0.99" stop-color="white"/>
</linearGradient>
<linearGradient id="paint6_linear" x1="12318.3" y1="1701.15" x2="12317.7" y2="1309.66" gradientUnits="userSpaceOnUse">
<stop stop-color="#403D52"/>
<stop offset="0.99" stop-color="white"/>
</linearGradient>
<linearGradient id="paint7_linear" x1="15288.5" y1="1725.63" x2="15287.9" y2="1329.39" gradientUnits="userSpaceOnUse">
<stop stop-color="white" stop-opacity="0"/>
<stop offset="0.99" stop-color="white"/>
</linearGradient>
<linearGradient id="paint8_linear" x1="14429.9" y1="1888.43" x2="14429.1" y2="1448.34" gradientUnits="userSpaceOnUse">
<stop stop-color="white" stop-opacity="0"/>
<stop offset="0.99" stop-color="white"/>
</linearGradient>
<linearGradient id="paint9_linear" x1="11708.4" y1="1638.79" x2="11707.7" y2="1267.65" gradientUnits="userSpaceOnUse">
<stop stop-color="white" stop-opacity="0"/>
<stop offset="0.99" stop-color="white"/>
</linearGradient>
<linearGradient id="paint10_linear" x1="27583.3" y1="1789.27" x2="27582.9" y2="1377.42" gradientUnits="userSpaceOnUse">
<stop stop-color="white" stop-opacity="0"/>
<stop offset="0.99" stop-color="white"/>
</linearGradient>
<linearGradient id="paint11_linear" x1="14167.1" y1="1642.51" x2="14166.5" y2="1246.27" gradientUnits="userSpaceOnUse">
<stop stop-color="white" stop-opacity="0"/>
<stop offset="0.99" stop-color="white"/>
</linearGradient>
<linearGradient id="paint12_linear" x1="8529.64" y1="1562.29" x2="8528.85" y2="1191.12" gradientUnits="userSpaceOnUse">
<stop stop-color="white" stop-opacity="0"/>
<stop offset="0.99" stop-color="white"/>
</linearGradient>
<linearGradient id="paint13_linear" x1="31674" y1="1569.72" x2="31673.7" y2="1195.41" gradientUnits="userSpaceOnUse">
<stop stop-color="white" stop-opacity="0"/>
<stop offset="0.99" stop-color="white"/>
</linearGradient>
<linearGradient id="paint14_linear" x1="21393.5" y1="1565.73" x2="21393.1" y2="1191.43" gradientUnits="userSpaceOnUse">
<stop stop-color="white" stop-opacity="0"/>
<stop offset="0.99" stop-color="white"/>
</linearGradient>
<linearGradient id="paint15_linear" x1="12318.3" y1="1640.51" x2="12317.7" y2="1248.97" gradientUnits="userSpaceOnUse">
<stop stop-color="white" stop-opacity="0"/>
<stop offset="0.99" stop-color="white"/>
</linearGradient>
<linearGradient id="paint16_linear" x1="15288.5" y1="1663.71" x2="15287.9" y2="1267.47" gradientUnits="userSpaceOnUse">
<stop stop-color="white" stop-opacity="0"/>
<stop offset="0.99" stop-color="white"/>
</linearGradient>
<linearGradient id="paint17_linear" x1="14429.9" y1="1815.23" x2="14429.1" y2="1375.14" gradientUnits="userSpaceOnUse">
<stop stop-color="white" stop-opacity="0"/>
<stop offset="0.99" stop-color="white"/>
</linearGradient>
<linearGradient id="paint18_linear" x1="11708.4" y1="1583.39" x2="11707.7" y2="1212.25" gradientUnits="userSpaceOnUse">
<stop stop-color="white" stop-opacity="0"/>
<stop offset="0.99" stop-color="white"/>
</linearGradient>
<linearGradient id="paint19_linear" x1="27583.3" y1="1723.38" x2="27582.9" y2="1311.49" gradientUnits="userSpaceOnUse">
<stop stop-color="white" stop-opacity="0"/>
<stop offset="0.99" stop-color="white"/>
</linearGradient>
<linearGradient id="paint20_linear" x1="14167.1" y1="1580.61" x2="14166.5" y2="1184.42" gradientUnits="userSpaceOnUse">
<stop stop-color="white" stop-opacity="0"/>
<stop offset="0.99" stop-color="white"/>
</linearGradient>
<linearGradient id="paint21_linear" x1="8529.64" y1="1506.88" x2="8528.85" y2="1135.7" gradientUnits="userSpaceOnUse">
<stop stop-color="white" stop-opacity="0"/>
<stop offset="0.99" stop-color="white"/>
</linearGradient>
<linearGradient id="paint22_linear" x1="31674" y1="1513.49" x2="31673.7" y2="1139.22" gradientUnits="userSpaceOnUse">
<stop stop-color="white" stop-opacity="0"/>
<stop offset="0.99" stop-color="white"/>
</linearGradient>
<linearGradient id="paint23_linear" x1="21393.5" y1="1509.5" x2="21393.1" y2="1135.2" gradientUnits="userSpaceOnUse">
<stop stop-color="white" stop-opacity="0"/>
<stop offset="0.99" stop-color="white"/>
</linearGradient>
<linearGradient id="paint24_linear" x1="12318.3" y1="1579.81" x2="12317.7" y2="1188.28" gradientUnits="userSpaceOnUse">
<stop stop-color="white" stop-opacity="0"/>
<stop offset="0.99" stop-color="white"/>
</linearGradient>
<linearGradient id="paint25_linear" x1="15288.5" y1="1601.82" x2="15287.9" y2="1205.58" gradientUnits="userSpaceOnUse">
<stop stop-color="white" stop-opacity="0"/>
<stop offset="0.99" stop-color="white"/>
</linearGradient>
<linearGradient id="paint26_linear" x1="14429.9" y1="1741.94" x2="14429.1" y2="1301.85" gradientUnits="userSpaceOnUse">
<stop stop-color="white" stop-opacity="0"/>
<stop offset="0.99" stop-color="white"/>
</linearGradient>
<linearGradient id="paint27_linear" x1="11708.4" y1="1527.96" x2="11707.7" y2="1156.78" gradientUnits="userSpaceOnUse">
<stop stop-color="white" stop-opacity="0"/>
<stop offset="0.99" stop-color="white"/>
</linearGradient>
<linearGradient id="paint28_linear" x1="27583.3" y1="1657.4" x2="27582.9" y2="1245.51" gradientUnits="userSpaceOnUse">
<stop stop-color="white" stop-opacity="0"/>
<stop offset="0.99" stop-color="white"/>
</linearGradient>
<linearGradient id="paint29_linear" x1="387.08" y1="383.194" x2="413.892" y2="383.194" gradientUnits="userSpaceOnUse">
<stop stop-color="#E5C6D6"/>
<stop offset="0.42" stop-color="#EAD4D0"/>
<stop offset="1" stop-color="#F0E9CB"/>
</linearGradient>
<linearGradient id="paint30_linear" x1="7267.35" y1="8121.33" x2="7709.72" y2="8121.33" gradientUnits="userSpaceOnUse">
<stop stop-color="#E5C6D6"/>
<stop offset="0.42" stop-color="#EAD4D0"/>
<stop offset="1" stop-color="#F0E9CB"/>
</linearGradient>
<linearGradient id="paint31_linear" x1="4273.8" y1="3304.18" x2="4368.92" y2="3304.18" gradientUnits="userSpaceOnUse">
<stop stop-color="#E5C6D6"/>
<stop offset="0.42" stop-color="#EAD4D0"/>
<stop offset="1" stop-color="#F0E9CB"/>
</linearGradient>
<linearGradient id="paint32_linear" x1="3875.57" y1="3183.9" x2="3974.69" y2="3183.9" gradientUnits="userSpaceOnUse">
<stop stop-color="#E5C6D6"/>
<stop offset="0.42" stop-color="#EAD4D0"/>
<stop offset="1" stop-color="#F0E9CB"/>
</linearGradient>
<linearGradient id="paint33_linear" x1="8010.96" y1="6340.97" x2="8431.48" y2="6340.97" gradientUnits="userSpaceOnUse">
<stop stop-color="#78D0D3"/>
<stop offset="0.42" stop-color="#EAD4D0"/>
<stop offset="1" stop-color="#F0E9CB"/>
</linearGradient>
<linearGradient id="paint34_linear" x1="305.334" y1="429.241" x2="388.918" y2="429.241" gradientUnits="userSpaceOnUse">
<stop stop-color="#010101" stop-opacity="0"/>
<stop offset="0.95" stop-color="#010101"/>
</linearGradient>
<linearGradient id="paint35_linear" x1="17802.9" y1="15856.4" x2="22887.8" y2="15856.4" gradientUnits="userSpaceOnUse">
<stop stop-color="#010101" stop-opacity="0"/>
<stop offset="0.95" stop-color="#010101"/>
</linearGradient>
<linearGradient id="paint36_linear" x1="12112.2" y1="5652.36" x2="12097.8" y2="6954.81" gradientUnits="userSpaceOnUse">
<stop stop-color="#010101" stop-opacity="0"/>
<stop offset="0.95" stop-color="#010101"/>
</linearGradient>
<linearGradient id="paint37_linear" x1="10270.1" y1="10638.3" x2="10358.8" y2="9832.82" gradientUnits="userSpaceOnUse">
<stop stop-color="#010101" stop-opacity="0"/>
<stop offset="0.95" stop-color="#010101"/>
</linearGradient>
<linearGradient id="paint38_linear" x1="39809.2" y1="12101" x2="39820.1" y2="13527.6" gradientUnits="userSpaceOnUse">
<stop stop-color="#010101" stop-opacity="0"/>
<stop offset="0.95" stop-color="#010101"/>
</linearGradient>
<linearGradient id="paint39_linear" x1="96843.1" y1="16335.7" x2="118373" y2="21621.2" gradientUnits="userSpaceOnUse">
<stop stop-color="#78D0D3"/>
<stop offset="0.95" stop-color="white"/>
</linearGradient>
<linearGradient id="paint40_linear" x1="181.501" y1="238.487" x2="170.618" y2="-2.20867" gradientUnits="userSpaceOnUse">
<stop stop-color="white" stop-opacity="0"/>
<stop offset="0.95" stop-color="white"/>
</linearGradient>
<linearGradient id="paint41_linear" x1="51319.8" y1="-1602.72" x2="51415.2" y2="11098.5" gradientUnits="userSpaceOnUse">
<stop stop-color="white" stop-opacity="0"/>
<stop offset="0.95" stop-color="white"/>
</linearGradient>
<clipPath id="clip0">
<rect width="649" height="628" fill="white"/>
</clipPath>
</defs>
</svg>
