<svg width="522" height="505" viewBox="0 0 522 505" fill="none" xmlns="http://www.w3.org/2000/svg">
<g id="coding_ 1" clip-path="url(#clip0)">
<g id="background_cloud">
<path id="Vector" opacity="0.24" d="M500.671 330.81C485.678 352.317 464.647 368.867 448.014 389.206C423.592 419.026 407.791 457.741 374.724 477.633C359.084 487.026 340.985 491.226 323.247 495.301C294.738 501.862 265.198 508.422 236.466 502.88C214.442 498.644 194.455 487.536 174.878 476.577L159.387 467.88C155.971 465.942 152.518 464.041 149.064 462.102L139.003 456.461C109.463 439.812 80.1096 422.442 55.2158 399.494C27.4773 374.023 5.42811 340.501 0.844367 303.065C-4.47228 259.802 15.8751 214.365 51.6755 189.503C71.3148 175.835 94.7303 168.231 114.022 154.055C144.468 131.69 161.226 95.919 182.132 64.4967C220.876 6.23691 295.384 -21.6443 358.128 19.7675C382.512 35.8452 400.959 59.7256 414.512 85.6189C425.965 107.449 434.387 131.131 449.616 150.514C467.007 172.654 492.323 187.987 507.54 211.681C530.335 247.141 524.82 296.194 500.671 330.81Z" fill="#FF8182"/>
</g>
<g id="character">
<path id="Vector_2" opacity="0.42" d="M178.853 463.383C177.027 465.383 180.021 468.166 182.58 469.135C199.276 475.526 216.999 478.81 234.876 478.827L231.833 484.008C259.854 491.79 289.445 491.945 317.545 484.455L313.222 477.746L338.327 476.503C342.315 476.317 356.302 477.957 358.948 474.416C366.563 464.215 335.57 463.818 332.241 463.681C299.173 462.298 266.085 461.763 232.976 462.078C223.949 462.161 214.922 462.306 205.896 462.513C201.623 462.662 181.511 460.55 178.853 463.383Z" fill="#FF8182"/>
<path id="Vector_3" d="M319.992 371.452C319.322 384.705 318.522 397.983 317.595 411.286C317.319 418.009 316.446 424.695 314.986 431.265C314.007 435.17 312.625 438.963 310.862 442.584C310.104 444.137 309.024 445.826 307.322 446C305.173 446.224 303.682 443.925 302.912 441.9C299.074 431.96 299.074 421.076 298.825 410.441C298.684 404.941 298.465 399.436 298.167 393.928C297.807 387.281 297.086 380.087 292.589 375.167C291.223 373.676 289.558 372.458 288.217 370.93C282.739 364.717 284.378 354.243 290.279 348.391C294.863 343.856 308.167 337.868 314.589 341.62C322.216 346.068 320.353 364.283 319.992 371.452Z" fill="#606161"/>
<path id="Vector_4" d="M281.534 348.702C283.454 351.746 284.355 355.324 284.105 358.915C283.795 369.712 277.385 379.267 274.168 389.592C269.348 405.185 272.031 421.896 272.515 438.259C272.74 440.513 272.46 442.788 271.696 444.919C271.29 445.976 270.572 446.884 269.638 447.523C268.704 448.162 267.598 448.502 266.466 448.497C264.827 448.193 263.35 447.311 262.305 446.013C254.404 437.564 254.665 424.679 253.361 413.199C251.895 400.414 247.932 388.063 244.553 375.651C243.025 370.047 241.597 364.307 241.957 358.517C242.317 352.727 244.752 346.776 249.535 343.496C258.218 337.557 275.335 339.818 281.534 348.702Z" fill="#606161"/>
<path id="Vector_5" opacity="0.52" d="M133.5 330.723L413.854 330.723V317.28L133.5 317.28V330.723Z" fill="#FF8182"/>
<path id="Vector_6" d="M188.219 299.984H371.606C380.223 299.984 387.208 292.997 387.208 284.378V157.136C387.208 148.517 380.223 141.531 371.606 141.531L188.219 141.531C179.602 141.531 172.617 148.517 172.617 157.136L172.617 284.378C172.617 292.997 179.602 299.984 188.219 299.984Z" fill="#FF8182"/>
<path id="Vector_7" d="M188.219 299.984H371.606C380.223 299.984 387.208 292.997 387.208 284.378V157.136C387.208 148.517 380.223 141.531 371.606 141.531L188.219 141.531C179.602 141.531 172.617 148.517 172.617 157.136L172.617 284.378C172.617 292.997 179.602 299.984 188.219 299.984Z" fill="url(#paint0_linear)"/>
<path id="Vector_8" d="M241.795 166.343H199.001V169.487H241.795V166.343Z" fill="url(#paint1_linear)"/>
<path id="Vector_9" d="M225.125 172.419H199.001V175.364H225.125V172.419Z" fill="url(#paint2_linear)"/>
<path id="Vector_10" d="M317.856 172.419H235.659V175.388H317.856V172.419Z" fill="url(#paint3_linear)"/>
<path id="Vector_11" d="M371.805 172.419H325.545V175.388H371.805V172.419Z" fill="url(#paint4_linear)"/>
<path id="Vector_12" d="M248.504 178.52H212.591V181.626H248.504V178.52Z" fill="url(#paint5_linear)"/>
<path id="Vector_13" d="M266.913 184.583H224.119V187.726H266.913V184.583Z" fill="url(#paint6_linear)"/>
<path id="Vector_14" d="M305.583 184.583H269.708V188.074H305.583V184.583Z" fill="url(#paint7_linear)"/>
<path id="Vector_15" d="M257.1 190.659H224.057V193.603H257.1V190.659Z" fill="url(#paint8_linear)"/>
<path id="Vector_16" d="M328.464 190.659H260.267V193.926H328.464V190.659Z" fill="url(#paint9_linear)"/>
<path id="Vector_17" d="M241.795 198.883H199.001V202.027H241.795V198.883Z" fill="url(#paint10_linear)"/>
<path id="Vector_18" d="M225.125 204.959H199.001V207.904H225.125V204.959Z" fill="url(#paint11_linear)"/>
<path id="Vector_19" d="M317.856 204.959H235.659V207.929H317.856V204.959Z" fill="url(#paint12_linear)"/>
<path id="Vector_20" d="M371.805 204.959H325.545V207.929H371.805V204.959Z" fill="url(#paint13_linear)"/>
<path id="Vector_21" d="M248.504 211.035H212.591V214.141H248.504V211.035Z" fill="url(#paint14_linear)"/>
<path id="Vector_22" d="M266.913 217.123H224.119V220.267H266.913V217.123Z" fill="url(#paint15_linear)"/>
<path id="Vector_23" d="M305.583 217.123H269.708V220.614H305.583V217.123Z" fill="url(#paint16_linear)"/>
<path id="Vector_24" d="M257.1 223.199H224.057V226.144H257.1V223.199Z" fill="url(#paint17_linear)"/>
<path id="Vector_25" d="M328.464 223.199H260.267V226.467H328.464V223.199Z" fill="url(#paint18_linear)"/>
<path id="Vector_26" d="M241.795 231.412H199.001V234.555H241.795V231.412Z" fill="url(#paint19_linear)"/>
<path id="Vector_27" d="M225.125 237.487H199.001V240.432H225.125V237.487Z" fill="url(#paint20_linear)"/>
<path id="Vector_28" d="M317.856 237.487H235.659V240.457H317.856V237.487Z" fill="url(#paint21_linear)"/>
<path id="Vector_29" d="M371.805 237.487H325.545V240.457H371.805V237.487Z" fill="url(#paint22_linear)"/>
<path id="Vector_30" d="M248.504 243.563H212.591V246.669H248.504V243.563Z" fill="url(#paint23_linear)"/>
<path id="Vector_31" d="M266.913 249.639H224.119V252.782H266.913V249.639Z" fill="url(#paint24_linear)"/>
<path id="Vector_32" d="M305.583 249.639H269.708V253.13H305.583V249.639Z" fill="url(#paint25_linear)"/>
<path id="Vector_33" d="M257.1 255.727H224.057V258.672H257.1V255.727Z" fill="url(#paint26_linear)"/>
<path id="Vector_34" d="M328.464 255.727H260.267V258.995H328.464V255.727Z" fill="url(#paint27_linear)"/>
<path id="Vector_35" d="M331.557 308.57C332.439 311.055 333.272 313.664 332.725 316.223C332.527 317.109 332.17 317.951 331.669 318.708C329.185 322.56 323.297 323.156 319.247 320.845C315.198 318.534 312.912 314.111 311.794 309.663C311.353 308.173 311.206 306.612 311.359 305.066C311.719 302.37 313.508 300.096 315.372 298.108C317.856 295.524 322.415 292.144 325.756 295.25C328.762 298.033 330.228 304.855 331.557 308.57Z" fill="url(#paint28_linear)"/>
<path id="Vector_36" d="M229.958 307.824C229.414 308.851 229.16 310.007 229.225 311.167C229.375 311.913 229.671 312.622 230.094 313.254C231.139 315.13 232.535 316.788 234.206 318.137C235.891 319.488 238.027 320.15 240.181 319.988C243.361 319.64 245.883 317.118 247.572 314.397C249.328 311.812 250.251 308.751 250.218 305.625C250.121 303.979 249.66 302.374 248.87 300.926C248.08 299.478 246.979 298.223 245.647 297.251C243.249 295.512 238.255 293.934 235.547 295.922C232.839 297.91 231.312 304.619 229.958 307.824Z" fill="url(#paint29_linear)"/>
<path id="Vector_37" d="M303.322 216.564C303.763 216.436 304.227 216.411 304.68 216.491C305.132 216.571 305.56 216.753 305.931 217.024C306.449 217.614 306.751 218.363 306.788 219.148C307.104 220.731 307.167 222.354 306.974 223.957C306.766 225.55 305.984 227.012 304.775 228.069C303.834 228.763 302.773 229.276 301.645 229.585C300.798 229.969 299.835 230.005 298.962 229.684C298.581 229.425 298.263 229.085 298.031 228.687C297.799 228.289 297.659 227.845 297.62 227.386C296.639 222.578 298.142 217.508 303.322 216.564Z" fill="url(#paint30_linear)"/>
<path id="Vector_38" d="M258.093 214.899C257.6 214.775 257.084 214.775 256.59 214.899C256.052 215.153 255.597 215.556 255.28 216.06C254.963 216.564 254.797 217.149 254.801 217.745C254.721 218.913 254.796 220.087 255.025 221.236C255.239 223.159 256.027 224.973 257.286 226.442C257.92 227.149 258.773 227.621 259.708 227.784C260.644 227.946 261.606 227.788 262.441 227.336C267.72 223.684 262.752 215.918 258.093 214.899Z" fill="url(#paint31_linear)"/>
<path id="Vector_39" d="M291.534 249.626C291.779 250.752 291.846 251.909 291.732 253.055C291.273 256.236 288.105 258.46 284.925 258.858C281.745 259.255 278.565 258.187 275.596 257.006C274.684 256.699 273.841 256.218 273.112 255.59C272.384 254.829 271.888 253.877 271.683 252.844C271.327 251.053 271.218 249.222 271.36 247.402L271.559 240.991C271.498 239.737 271.745 238.487 272.279 237.35C273.522 235.226 276.366 234.865 278.838 234.704C282.08 234.567 286.962 234.704 289.099 237.661C291.235 240.618 290.987 246.184 291.534 249.626Z" fill="url(#paint32_linear)"/>
<path id="Vector_40" d="M301.521 197.293C302.486 199.998 302.826 202.887 302.515 205.742C302.238 212.335 301.549 218.904 300.453 225.411C299.633 230.294 298.341 235.537 294.478 238.618C293.373 239.361 292.33 240.192 291.36 241.103C290.689 241.824 290.217 242.719 289.596 243.501C286.453 247.44 280.118 247.44 275.795 244.818C271.472 242.197 268.702 237.699 266.168 233.325C263.373 228.505 260.603 223.46 260.106 217.906C259.696 213.508 260.727 208.873 259.05 204.786C257.808 201.779 255.236 199.368 254.665 196.175C254.444 194.024 254.707 191.85 255.435 189.814C256.441 186.198 257.982 182.023 261.646 181.042C264.317 180.321 267.075 181.688 269.845 181.775C273.373 181.899 276.963 179.924 280.316 181.042C284.627 182.483 286.528 187.453 290.826 189.068C295.124 190.684 299.521 192.721 301.521 197.293Z" fill="#606161"/>
<path id="Vector_41" d="M315.781 260.971C303.185 250.521 285.012 250.782 268.801 252.994C262.106 253.901 255.286 255.106 249.398 258.436C239.535 264.027 233.696 274.837 230.628 285.77C229.001 291.573 228.144 298.195 231.398 303.289C234.814 308.558 241.622 310.372 247.858 311.067C248.813 311.089 249.746 311.358 250.566 311.85C251.425 312.646 251.963 313.729 252.081 314.894C253.82 323.964 250.292 334.153 254.951 342.117C259.46 349.808 269.534 351.833 278.416 352.516C289.906 353.399 302.366 353.076 311.695 346.304C313.242 345.264 314.557 343.914 315.558 342.341C317.098 339.706 317.185 336.501 317.222 333.457C317.322 326.822 314.899 313.478 318.129 307.626C320.837 302.755 328.551 302.73 331.259 297.164C336.39 286.578 323.496 267.357 315.781 260.971Z" fill="white"/>
<path id="Vector_42" d="M270.192 345.521L270.279 359.648C270.341 360.192 270.237 360.742 269.981 361.226C269.568 361.736 268.97 362.062 268.317 362.133C264.491 363.027 260.491 362.518 256.565 362.53C252.64 362.543 248.404 363.239 245.584 365.984C249.87 369.153 255.398 370.022 260.702 370.644C268.553 371.58 276.42 372.201 284.304 372.507C289.414 372.884 294.552 372.617 299.595 371.712C304.03 370.822 308.186 368.883 311.719 366.059C308.254 362.332 302.515 362.406 297.446 362.406C292.515 362.404 287.588 362.122 282.689 361.561C282.135 361.569 281.586 361.462 281.075 361.249C280.565 361.035 280.103 360.718 279.72 360.319C279.307 359.583 279.142 358.733 279.248 357.896C279.342 354.759 279.738 351.639 280.428 348.577C280.575 347.567 280.982 346.613 281.608 345.807C282.715 344.861 284.105 344.31 285.558 344.241C291.31 343.282 296.95 341.742 302.39 339.644C304.631 338.901 306.716 337.751 308.539 336.252C313.434 331.804 313.222 324.138 312.092 317.615C303.085 322.845 292.913 325.741 282.503 326.039C275.385 326.238 259.944 323.181 254.938 330.04C252.454 333.506 255.1 336.712 257.845 339.11C259.037 340.128 270.192 345.384 270.192 345.521Z" fill="url(#paint33_linear)"/>
<path id="Vector_43" d="M295.695 281.322H266.13C254.612 281.322 245.274 290.662 245.274 302.183V310.993C245.274 322.514 254.612 331.854 266.13 331.854H295.695C307.214 331.854 316.552 322.514 316.552 310.993V302.183C316.552 290.662 307.214 281.322 295.695 281.322Z" fill="#FF8182"/>
<path id="Vector_44" d="M295.695 281.322H266.13C254.612 281.322 245.274 290.662 245.274 302.183V310.993C245.274 322.514 254.612 331.854 266.13 331.854H295.695C307.214 331.854 316.552 322.514 316.552 310.993V302.183C316.552 290.662 307.214 281.322 295.695 281.322Z" fill="url(#paint34_linear)"/>
<path id="Vector_45" d="M295.695 285.969H266.13C254.612 285.969 245.274 295.309 245.274 306.83V315.64C245.274 327.161 254.612 336.501 266.13 336.501H295.695C307.214 336.501 316.552 327.161 316.552 315.64V306.83C316.552 295.309 307.214 285.969 295.695 285.969Z" fill="#FF8182"/>
<path id="Vector_46" d="M291.881 313.863C289.748 314.809 287.502 315.477 285.198 315.85C278.987 316.994 271.733 316.745 267.261 312.235C266.56 311.55 265.991 310.741 265.584 309.849C264.342 306.83 265.969 303.19 268.64 301.276C271.31 299.363 274.702 298.853 277.969 298.692C281.968 298.493 289.571 297.81 293.061 300.506C297.235 303.736 296.589 311.651 291.881 313.863Z" fill="url(#paint35_linear)"/>
<path id="Vector_47" d="M279.72 386.423H279.733C282.415 386.423 284.59 384.248 284.59 381.565V310.968C284.59 308.285 282.415 306.109 279.733 306.109H279.72C277.038 306.109 274.863 308.285 274.863 310.968V381.565C274.863 384.248 277.038 386.423 279.72 386.423Z" fill="white"/>
<path id="Vector_48" d="M309.645 442.385C312.129 444.435 312.75 447.988 313.843 451.082C315.359 455.306 318.166 459.146 318.539 463.619C318.702 464.945 318.482 466.29 317.905 467.495C317.35 468.428 316.56 469.198 315.614 469.73C314.668 470.262 313.599 470.537 312.514 470.527C310.34 470.482 308.221 469.837 306.39 468.663C303.153 466.734 300.479 463.988 298.639 460.699C297.7 459.09 297.099 457.305 296.875 455.456C296.366 449.852 302.179 436.421 309.645 442.385Z" fill="#FF8182"/>
<path id="Vector_49" d="M314.278 466.091C314.454 466.418 314.545 466.783 314.545 467.153C314.545 467.524 314.454 467.889 314.278 468.216C313.992 468.523 313.612 468.728 313.198 468.8C311.486 469.131 309.713 468.807 308.229 467.893C306.764 466.994 305.42 465.913 304.229 464.675C302.385 463.056 300.753 461.211 299.372 459.183C297.988 457.122 297.425 454.618 297.794 452.163C299.111 445.429 305.049 451.467 307.235 453.952C310.356 457.498 312.749 461.622 314.278 466.091Z" fill="#606161"/>
<path id="Vector_50" d="M261.013 442.521C258.528 444.571 257.907 448.125 256.814 451.218C255.298 455.443 252.491 459.295 252.118 463.755C251.956 465.085 252.176 466.434 252.752 467.644C253.309 468.574 254.1 469.342 255.045 469.872C255.991 470.401 257.059 470.674 258.143 470.663C260.318 470.625 262.439 469.979 264.267 468.8C267.508 466.875 270.182 464.127 272.018 460.835C272.96 459.227 273.56 457.442 273.782 455.592C274.279 449.988 268.466 436.508 261.013 442.521Z" fill="#FF8182"/>
<path id="Vector_51" d="M255.745 466.576C255.573 466.903 255.484 467.268 255.484 467.638C255.484 468.008 255.573 468.373 255.745 468.7C256.037 469.008 256.421 469.213 256.839 469.284C258.55 469.602 260.318 469.279 261.807 468.377C263.265 467.474 264.604 466.393 265.795 465.159C267.646 463.539 269.282 461.69 270.664 459.655C272.045 457.597 272.608 455.098 272.242 452.647C270.913 445.901 264.987 451.939 262.789 454.437C259.671 457.984 257.278 462.108 255.745 466.576Z" fill="#606161"/>
<path id="Vector_52" d="M287.633 412.814C285.632 413.765 283.422 414.192 281.211 414.056C278.763 414.197 276.308 414.017 273.907 413.522C273.097 413.362 272.338 413.008 271.695 412.491C271.159 411.999 270.735 411.397 270.453 410.726C268.428 406.253 266.143 396.984 269.286 393.22C272.876 388.896 287.124 388.138 291.645 392.673C296.03 396.922 292.85 409.745 287.633 412.814Z" fill="#FF8182"/>
<path id="Vector_53" d="M287.633 412.814C285.632 413.765 283.422 414.192 281.211 414.056C278.763 414.197 276.308 414.017 273.907 413.522C273.097 413.362 272.338 413.008 271.695 412.491C271.159 411.999 270.735 411.397 270.453 410.726C268.428 406.253 266.143 396.984 269.286 393.22C272.876 388.896 287.124 388.138 291.645 392.673C296.03 396.922 292.85 409.745 287.633 412.814Z" fill="url(#paint36_linear)"/>
<path id="Vector_54" d="M277.745 454.847H284.229V413H277.745V454.847Z" fill="white"/>
<path id="Vector_55" d="M306.626 458.325C308.067 459.506 309.471 460.984 311.322 461.208C312.664 461.357 314.005 460.786 315.372 460.786C317.17 460.912 318.865 461.674 320.154 462.935C321.371 463.899 322.286 465.193 322.788 466.662C323.794 470.092 320.738 473.844 317.173 474.192C313.608 474.54 310.179 472.105 308.614 468.899C308.277 468.021 307.835 467.186 307.297 466.414C306.782 465.86 306.182 465.39 305.521 465.022C300.246 461.75 294.427 459.448 288.341 458.226C287.285 458.015 285.993 457.915 285.323 458.748C284.998 459.224 284.82 459.786 284.813 460.363C284.538 462.838 284.426 465.328 284.478 467.818C284.445 468.296 284.535 468.775 284.739 469.21C285.061 469.657 285.456 470.047 285.906 470.365C286.624 471.129 287.075 472.104 287.192 473.146C287.308 474.188 287.084 475.239 286.552 476.143C285.429 477.924 283.706 479.245 281.695 479.87C279.31 480.752 276.304 480.901 274.528 479.075C273.901 478.369 273.482 477.503 273.317 476.573C273.153 475.642 273.249 474.685 273.596 473.807C274.312 472.053 275.635 470.615 277.323 469.756C277.91 469.534 278.419 469.145 278.789 468.638C278.994 468.17 279.071 467.655 279.012 467.147L278.838 461.606C278.891 461.183 278.842 460.754 278.695 460.354C278.548 459.954 278.307 459.595 277.994 459.307C277.497 459.049 276.928 458.965 276.379 459.071C267.249 459.776 258.505 463.054 251.162 468.526C252.503 469.57 252.267 471.831 251.062 473.024C249.735 474.118 248.03 474.645 246.317 474.49C244.434 474.509 242.588 473.969 241.013 472.937C240.225 472.422 239.582 471.712 239.147 470.877C238.712 470.041 238.499 469.107 238.529 468.166C238.655 467.212 239.028 466.307 239.609 465.541C240.19 464.774 240.961 464.171 241.845 463.792C243.622 463.048 245.577 462.837 247.473 463.184C248.448 463.391 249.446 463.47 250.441 463.42C251.558 463.188 252.621 462.745 253.572 462.115C262.175 457.256 271.717 454.291 281.559 453.418C289.807 452.685 299.956 452.859 306.626 458.325Z" fill="white"/>
<path id="Vector_56" d="M242.205 397.469H314.713C323.323 397.469 330.303 390.487 330.303 381.876V380.894C330.303 372.282 323.323 365.301 314.713 365.301H242.205C233.596 365.301 226.616 372.282 226.616 380.894V381.876C226.616 390.487 233.596 397.469 242.205 397.469Z" fill="#FF8182"/>
<path id="Vector_57" d="M242.205 397.469H314.713C323.323 397.469 330.303 390.487 330.303 381.876V380.894C330.303 372.282 323.323 365.301 314.713 365.301H242.205C233.596 365.301 226.616 372.282 226.616 380.894V381.876C226.616 390.487 233.596 397.469 242.205 397.469Z" fill="url(#paint37_linear)"/>
</g>
<g id="clouds">
<g id="middle_right">
<path id="Vector_58" opacity="0.52" d="M336.75 196.995L492.373 196.995C500.304 196.995 506.733 190.565 506.733 182.632V98.2802C506.733 90.3477 500.304 83.9171 492.373 83.9171L336.75 83.9171C328.819 83.9171 322.39 90.3477 322.39 98.2802V182.632C322.39 190.565 328.819 196.995 336.75 196.995Z" fill="#01D1C1"/>
<path id="Vector_59" d="M336.75 196.995L492.373 196.995C500.304 196.995 506.733 190.565 506.733 182.632V98.2802C506.733 90.3477 500.304 83.9171 492.373 83.9171L336.75 83.9171C328.819 83.9171 322.39 90.3477 322.39 98.2802V182.632C322.39 190.565 328.819 196.995 336.75 196.995Z" fill="url(#paint38_linear)"/>
</g>
<g id="middle_left">
<path id="Vector_60" opacity="0.52" d="M75.8241 232.282L211.548 232.282C219.876 232.282 226.628 225.529 226.628 217.198L226.628 64.4228C226.628 56.0923 219.876 49.3392 211.548 49.3392L75.8241 49.3392C67.4954 49.3392 60.7437 56.0923 60.7437 64.4228L60.7437 217.198C60.7437 225.529 67.4954 232.282 75.8241 232.282Z" fill="#FF8182"/>
<path id="Vector_61" d="M75.8241 232.282L211.548 232.282C219.876 232.282 226.628 225.529 226.628 217.198L226.628 64.4228C226.628 56.0923 219.876 49.3392 211.548 49.3392L75.8241 49.3392C67.4954 49.3392 60.7437 56.0923 60.7437 64.4228L60.7437 217.198C60.7437 225.529 67.4954 232.282 75.8241 232.282Z" fill="url(#paint39_linear)"/>
<path id="Vector_62" d="M86.6311 100.641L117.599 84.6875V89.3095L91.513 102.318V102.467L117.599 115.538V120.16L86.6311 104.207V100.641Z" fill="#01D1C1"/>
<path id="Vector_63" d="M121.885 122.894L140.518 74.4375H145.052L126.419 122.894H121.885Z" fill="#01D1C1"/>
<path id="Vector_64" d="M180.269 104.443L149.288 120.334V115.6L175.573 102.529V102.318L149.288 89.2474V84.6875L180.269 100.579V104.443Z" fill="#01D1C1"/>
</g>
<g id="bottom_left">
<path id="Vector_65" d="M78.4949 297.548H173.685C181.005 297.548 186.939 291.613 186.939 284.291V266.151C186.939 258.829 181.005 252.894 173.685 252.894H78.4949C71.1747 252.894 65.2405 258.829 65.2405 266.151V284.291C65.2405 291.613 71.1747 297.548 78.4949 297.548Z" fill="white"/>
<g id="group" opacity="0.52">
<path id="Vector_66" opacity="0.52" d="M112.345 262.734H84.0225V264.809H112.345V262.734Z" fill="#01D1C1"/>
<path id="Vector_67" opacity="0.52" d="M101.314 266.76H84.0225V268.711H101.314V266.76Z" fill="#01D1C1"/>
<path id="Vector_68" opacity="0.52" d="M162.679 266.76H108.283V268.723H162.679V266.76Z" fill="#01D1C1"/>
<path id="Vector_69" opacity="0.52" d="M116.792 270.786H93.0161V272.849H116.792V270.786Z" fill="#01D1C1"/>
<path id="Vector_70" opacity="0.52" d="M128.965 274.812H100.643V276.886H128.965V274.812Z" fill="#01D1C1"/>
<path id="Vector_71" opacity="0.52" d="M154.555 274.812H130.816V277.122H154.555V274.812Z" fill="#01D1C1"/>
<path id="Vector_72" opacity="0.52" d="M122.481 278.825H100.606V280.775H122.481V278.825Z" fill="#01D1C1"/>
<path id="Vector_73" opacity="0.52" d="M169.697 278.825H124.568V280.987H169.697V278.825Z" fill="#01D1C1"/>
<path id="Vector_74" opacity="0.52" d="M112.345 284.267H84.0225V286.342H112.345V284.267Z" fill="#01D1C1"/>
<path id="Vector_75" opacity="0.52" d="M101.314 288.292H84.0225V290.243H101.314V288.292Z" fill="#01D1C1"/>
<path id="Vector_76" opacity="0.52" d="M162.679 288.292H108.283V290.256H162.679V288.292Z" fill="#01D1C1"/>
</g>
</g>
<g id="bottom_right">
<path id="Vector_77" d="M385.506 291.051H463.976C471.536 291.051 477.665 284.921 477.665 277.359V226.231C477.665 218.669 471.536 212.539 463.976 212.539H385.506C377.946 212.539 371.817 218.669 371.817 226.231V277.359C371.817 284.921 377.946 291.051 385.506 291.051Z" fill="white"/>
<g id="Group" opacity="0.52">
<path id="Vector_78" opacity="0.52" d="M411.89 232.853H383.568V234.928H411.89V232.853Z" fill="#FF8182"/>
<path id="Vector_79" opacity="0.52" d="M400.86 236.866H383.568V238.817H400.86V236.866Z" fill="#FF8182"/>
<path id="Vector_80" opacity="0.52" d="M462.225 236.866H407.829V238.829H462.225V236.866Z" fill="#FF8182"/>
<path id="Vector_81" opacity="0.52" d="M416.338 240.904H392.562V242.967H416.338V240.904Z" fill="#FF8182"/>
<path id="Vector_82" opacity="0.52" d="M428.511 244.917H400.189V246.992H428.511V244.917Z" fill="#FF8182"/>
<path id="Vector_83" opacity="0.52" d="M454.088 244.917H430.35V247.228H454.088V244.917Z" fill="#FF8182"/>
<path id="Vector_84" opacity="0.52" d="M422.014 248.943H400.139V250.894H422.014V248.943Z" fill="#FF8182"/>
<path id="Vector_85" opacity="0.52" d="M469.243 248.943H424.114V251.105H469.243V248.943Z" fill="#FF8182"/>
<path id="Vector_86" opacity="0.52" d="M411.89 254.385H383.568V256.46H411.89V254.385Z" fill="#FF8182"/>
<path id="Vector_87" opacity="0.52" d="M400.86 258.398H383.568V260.349H400.86V258.398Z" fill="#FF8182"/>
<path id="Vector_88" opacity="0.52" d="M462.225 258.398H407.829V260.362H462.225V258.398Z" fill="#FF8182"/>
<path id="Vector_89" opacity="0.52" d="M416.338 262.424H392.562V264.487H416.338V262.424Z" fill="#FF8182"/>
<path id="Vector_90" opacity="0.52" d="M428.511 266.45H400.189V268.525H428.511V266.45Z" fill="#FF8182"/>
<path id="Vector_91" opacity="0.52" d="M454.088 266.45H430.35V268.761H454.088V266.45Z" fill="#FF8182"/>
<path id="Vector_92" opacity="0.52" d="M422.014 270.476H400.139V272.426H422.014V270.476Z" fill="#FF8182"/>
<path id="Vector_93" opacity="0.52" d="M469.243 270.476H424.114V272.638H469.243V270.476Z" fill="#FF8182"/>
</g>
</g>
<g id="top_right" opacity="0.52">
<path id="Vector_94" opacity="0.52" d="M289.161 114.395L386.935 114.395C391.915 114.395 395.953 110.356 395.953 105.375V52.3705C395.953 47.3887 391.915 43.3501 386.935 43.3501L289.161 43.3501C284.18 43.3501 280.142 47.3887 280.142 52.3705V105.375C280.142 110.356 284.18 114.395 289.161 114.395Z" fill="#FF8182"/>
<path id="Vector_95" d="M289.161 114.395L386.935 114.395C391.915 114.395 395.953 110.356 395.953 105.375V52.3705C395.953 47.3887 391.915 43.3501 386.935 43.3501L289.161 43.3501C284.18 43.3501 280.142 47.3887 280.142 52.3705V105.375C280.142 110.356 284.18 114.395 289.161 114.395Z" fill="url(#paint40_linear)"/>
<path id="Vector_96" opacity="0.52" d="M316.129 53.0664H294.838V54.6319H316.129V53.0664Z" fill="#01D1C1"/>
<path id="Vector_97" opacity="0.52" d="M307.831 56.0981H294.838V57.5643H307.831V56.0981Z" fill="#01D1C1"/>
<path id="Vector_98" opacity="0.52" d="M353.967 56.0981H313.073V57.5767H353.967V56.0981Z" fill="#01D1C1"/>
<path id="Vector_99" opacity="0.52" d="M380.798 56.0981H357.78V57.5767H380.798V56.0981Z" fill="#01D1C1"/>
<path id="Vector_100" opacity="0.52" d="M319.458 59.1172H301.595V60.6579H319.458V59.1172Z" fill="#01D1C1"/>
<path id="Vector_101" opacity="0.52" d="M328.626 62.1489H307.334V63.7144H328.626V62.1489Z" fill="#01D1C1"/>
<path id="Vector_102" opacity="0.52" d="M347.843 62.1489H330.004V63.8884H347.843V62.1489Z" fill="#01D1C1"/>
<path id="Vector_103" opacity="0.52" d="M323.731 65.1685H307.297V66.6346H323.731V65.1685Z" fill="#01D1C1"/>
<path id="Vector_104" opacity="0.52" d="M359.246 65.1685H325.321V66.7961H359.246V65.1685Z" fill="#01D1C1"/>
<path id="Vector_105" opacity="0.52" d="M316.129 69.2559H294.838V70.8214H316.129V69.2559Z" fill="#01D1C1"/>
<path id="Vector_106" opacity="0.52" d="M307.831 72.2749H294.838V73.741H307.831V72.2749Z" fill="#01D1C1"/>
<path id="Vector_107" opacity="0.52" d="M353.967 72.2749H313.073V73.7535H353.967V72.2749Z" fill="#01D1C1"/>
<path id="Vector_108" opacity="0.52" d="M380.798 72.2749H357.78V73.7535H380.798V72.2749Z" fill="#01D1C1"/>
<path id="Vector_109" opacity="0.52" d="M319.458 75.2944H301.595V76.8351H319.458V75.2944Z" fill="#01D1C1"/>
<path id="Vector_110" opacity="0.52" d="M328.626 78.3262H307.334V79.8917H328.626V78.3262Z" fill="#01D1C1"/>
<path id="Vector_111" opacity="0.52" d="M347.843 78.3262H330.004V80.0657H347.843V78.3262Z" fill="#01D1C1"/>
<path id="Vector_112" opacity="0.52" d="M323.731 81.3452H307.297V82.8113H323.731V81.3452Z" fill="#01D1C1"/>
<path id="Vector_113" opacity="0.52" d="M359.246 81.3452H325.321V82.9728H359.246V81.3452Z" fill="#01D1C1"/>
<path id="Vector_114" opacity="0.52" d="M316.129 85.4326H294.838V86.9981H316.129V85.4326Z" fill="#01D1C1"/>
<path id="Vector_115" opacity="0.52" d="M307.831 88.4648H294.838V89.931H307.831V88.4648Z" fill="#01D1C1"/>
<path id="Vector_116" opacity="0.52" d="M353.967 88.4648H313.073V89.9434H353.967V88.4648Z" fill="#01D1C1"/>
<path id="Vector_117" opacity="0.52" d="M380.798 88.4648H357.78V89.9434H380.798V88.4648Z" fill="#01D1C1"/>
<path id="Vector_118" opacity="0.52" d="M319.458 91.4839H301.595V93.0246H319.458V91.4839Z" fill="#01D1C1"/>
<path id="Vector_119" opacity="0.52" d="M328.626 94.5029H307.334V96.0684H328.626V94.5029Z" fill="#01D1C1"/>
<path id="Vector_120" opacity="0.52" d="M347.843 94.5029H330.004V96.2424H347.843V94.5029Z" fill="#01D1C1"/>
<path id="Vector_121" opacity="0.52" d="M323.731 97.5347H307.297V99.0008H323.731V97.5347Z" fill="#01D1C1"/>
<path id="Vector_122" opacity="0.52" d="M359.246 97.5347H325.321V99.1623H359.246V97.5347Z" fill="#01D1C1"/>
</g>
</g>
<g id="plant">
<path id="Vector_123" d="M139.649 406.415C135.537 398.29 130.506 389.853 131.475 380.795C132.059 375.316 134.829 370.346 137.537 365.538L149.735 343.906C153.462 348.752 159.599 351.697 162.058 357.288C166.008 366.271 158.332 376.211 158.741 386.014C159.015 393.556 164.021 400.427 163.71 407.968C163.512 413.448 154.841 431.402 147.822 430.718C144.108 430.358 141.984 411.012 139.649 406.415Z" fill="#01D1C1"/>
<path id="Vector_124" d="M139.649 406.415C135.537 398.29 130.506 389.853 131.475 380.795C132.059 375.316 134.829 370.346 137.537 365.538L149.735 343.906C153.462 348.752 159.599 351.697 162.058 357.288C166.008 366.271 158.332 376.211 158.741 386.014C159.015 393.556 164.021 400.427 163.71 407.968C163.512 413.448 154.841 431.402 147.822 430.718C144.108 430.358 141.984 411.012 139.649 406.415Z" fill="url(#paint41_linear)"/>
<path id="Vector_125" d="M181.648 402.949C184.418 402.949 187.859 403.508 188.654 406.179C189.3 408.515 187.25 410.664 185.3 412.106C178.505 417.076 169.996 420.89 166.667 428.631C161.139 441.478 145.487 433.24 153.586 422.12C156.94 417.523 159.797 411.348 163.971 407.509C168.766 403.073 175.474 402.874 181.648 402.949Z" fill="#01D1C1"/>
<path id="Vector_126" d="M181.648 402.949C184.418 402.949 187.859 403.508 188.654 406.179C189.3 408.515 187.25 410.664 185.3 412.106C178.505 417.076 169.996 420.89 166.667 428.631C161.139 441.478 145.487 433.24 153.586 422.12C156.94 417.523 159.797 411.348 163.971 407.509C168.766 403.073 175.474 402.874 181.648 402.949Z" fill="url(#paint42_linear)"/>
<path id="Vector_127" d="M141.065 408.888C137.947 405.334 133.314 403.582 128.891 401.942C126.792 401.172 124.096 400.538 122.68 402.228C122.213 402.887 121.963 403.675 121.963 404.483C121.963 405.291 122.213 406.079 122.68 406.738C123.654 408.03 124.844 409.143 126.196 410.031C128.916 412.025 131.147 414.612 132.717 417.598C134.295 420.816 134.717 424.481 136.121 427.786C137.525 431.091 140.456 434.21 144.034 434.06C145.436 433.919 146.764 433.366 147.852 432.471C148.94 431.575 149.738 430.377 150.145 429.028C151.537 424.742 149.686 422.816 147.388 419.784C144.841 416.417 143.91 412.106 141.065 408.888Z" fill="#01D1C1"/>
<path id="Vector_128" d="M141.065 408.888C137.947 405.334 133.314 403.582 128.891 401.942C126.792 401.172 124.096 400.538 122.68 402.228C122.213 402.887 121.963 403.675 121.963 404.483C121.963 405.291 122.213 406.079 122.68 406.738C123.654 408.03 124.844 409.143 126.196 410.031C128.916 412.025 131.147 414.612 132.717 417.598C134.295 420.816 134.717 424.481 136.121 427.786C137.525 431.091 140.456 434.21 144.034 434.06C145.436 433.919 146.764 433.366 147.852 432.471C148.94 431.575 149.738 430.377 150.145 429.028C151.537 424.742 149.686 422.816 147.388 419.784C144.841 416.417 143.91 412.106 141.065 408.888Z" fill="url(#paint43_linear)"/>
<path id="Vector_129" d="M168.033 428.743L163.847 467.918H159.412C155.996 465.98 152.543 464.079 149.09 462.14L139.028 456.5L135.463 428.743H168.033Z" fill="#01D1C1"/>
<path id="Vector_130" d="M168.033 428.743L163.847 467.918H159.412C155.996 465.98 152.543 464.079 149.09 462.14L139.028 456.5L135.463 428.743H168.033Z" fill="url(#paint44_linear)"/>
</g>
</g>
<defs>
<linearGradient id="paint0_linear" x1="67107.9" y1="41361.6" x2="66008.2" y2="8885.68" gradientUnits="userSpaceOnUse">
<stop stop-color="white" stop-opacity="0"/>
<stop offset="0.95" stop-color="white"/>
</linearGradient>
<linearGradient id="paint1_linear" x1="222.032" y1="81.2076" x2="219.671" y2="207.097" gradientUnits="userSpaceOnUse">
<stop stop-color="white" stop-opacity="0"/>
<stop offset="0.99" stop-color="white"/>
</linearGradient>
<linearGradient id="paint2_linear" x1="6860.51" y1="1300.75" x2="6859.88" y2="1002.33" gradientUnits="userSpaceOnUse">
<stop stop-color="white" stop-opacity="0"/>
<stop offset="0.99" stop-color="white"/>
</linearGradient>
<linearGradient id="paint3_linear" x1="25475.8" y1="1307.43" x2="25475.6" y2="1006.45" gradientUnits="userSpaceOnUse">
<stop stop-color="white" stop-opacity="0"/>
<stop offset="0.99" stop-color="white"/>
</linearGradient>
<linearGradient id="paint4_linear" x1="17207.1" y1="1304.17" x2="17206.8" y2="1003.25" gradientUnits="userSpaceOnUse">
<stop stop-color="white" stop-opacity="0"/>
<stop offset="0.99" stop-color="white"/>
</linearGradient>
<linearGradient id="paint5_linear" x1="9907.81" y1="1367.88" x2="9907.3" y2="1053.08" gradientUnits="userSpaceOnUse">
<stop stop-color="white" stop-opacity="0"/>
<stop offset="0.99" stop-color="white"/>
</linearGradient>
<linearGradient id="paint6_linear" x1="12296.7" y1="1387.56" x2="12296.3" y2="1068.95" gradientUnits="userSpaceOnUse">
<stop stop-color="white" stop-opacity="0"/>
<stop offset="0.99" stop-color="white"/>
</linearGradient>
<linearGradient id="paint7_linear" x1="11606.2" y1="1518.46" x2="11605.5" y2="1164.59" gradientUnits="userSpaceOnUse">
<stop stop-color="white" stop-opacity="0"/>
<stop offset="0.99" stop-color="white"/>
</linearGradient>
<linearGradient id="paint8_linear" x1="9417.2" y1="1317.74" x2="9416.71" y2="1019.31" gradientUnits="userSpaceOnUse">
<stop stop-color="white" stop-opacity="0"/>
<stop offset="0.99" stop-color="white"/>
</linearGradient>
<linearGradient id="paint9_linear" x1="22185.6" y1="1438.74" x2="22185.4" y2="1107.57" gradientUnits="userSpaceOnUse">
<stop stop-color="white" stop-opacity="0"/>
<stop offset="0.99" stop-color="white"/>
</linearGradient>
<linearGradient id="paint10_linear" x1="11394.8" y1="1320.72" x2="11394.3" y2="1002.12" gradientUnits="userSpaceOnUse">
<stop stop-color="white" stop-opacity="0"/>
<stop offset="0.99" stop-color="white"/>
</linearGradient>
<linearGradient id="paint11_linear" x1="6860.51" y1="1256.23" x2="6859.88" y2="957.771" gradientUnits="userSpaceOnUse">
<stop stop-color="white" stop-opacity="0"/>
<stop offset="0.99" stop-color="white"/>
</linearGradient>
<linearGradient id="paint12_linear" x1="25475.8" y1="1262.2" x2="25475.6" y2="961.218" gradientUnits="userSpaceOnUse">
<stop stop-color="white" stop-opacity="0"/>
<stop offset="0.99" stop-color="white"/>
</linearGradient>
<linearGradient id="paint13_linear" x1="17207.1" y1="1258.99" x2="17206.8" y2="958.013" gradientUnits="userSpaceOnUse">
<stop stop-color="white" stop-opacity="0"/>
<stop offset="0.99" stop-color="white"/>
</linearGradient>
<linearGradient id="paint14_linear" x1="9907.81" y1="1319.12" x2="9907.3" y2="1004.28" gradientUnits="userSpaceOnUse">
<stop stop-color="white" stop-opacity="0"/>
<stop offset="0.99" stop-color="white"/>
</linearGradient>
<linearGradient id="paint15_linear" x1="12296.7" y1="1337.77" x2="12296.3" y2="1019.16" gradientUnits="userSpaceOnUse">
<stop stop-color="white" stop-opacity="0"/>
<stop offset="0.99" stop-color="white"/>
</linearGradient>
<linearGradient id="paint16_linear" x1="11606.2" y1="1459.6" x2="11605.5" y2="1105.73" gradientUnits="userSpaceOnUse">
<stop stop-color="white" stop-opacity="0"/>
<stop offset="0.99" stop-color="white"/>
</linearGradient>
<linearGradient id="paint17_linear" x1="9417.2" y1="1273.18" x2="9416.71" y2="974.752" gradientUnits="userSpaceOnUse">
<stop stop-color="white" stop-opacity="0"/>
<stop offset="0.99" stop-color="white"/>
</linearGradient>
<linearGradient id="paint18_linear" x1="22185.6" y1="1385.75" x2="22185.4" y2="1054.55" gradientUnits="userSpaceOnUse">
<stop stop-color="white" stop-opacity="0"/>
<stop offset="0.99" stop-color="white"/>
</linearGradient>
<linearGradient id="paint19_linear" x1="11394.8" y1="1270.95" x2="11394.3" y2="952.376" gradientUnits="userSpaceOnUse">
<stop stop-color="white" stop-opacity="0"/>
<stop offset="0.99" stop-color="white"/>
</linearGradient>
<linearGradient id="paint20_linear" x1="6860.51" y1="1211.66" x2="6859.88" y2="913.208" gradientUnits="userSpaceOnUse">
<stop stop-color="white" stop-opacity="0"/>
<stop offset="0.99" stop-color="white"/>
</linearGradient>
<linearGradient id="paint21_linear" x1="25475.8" y1="1216.99" x2="25475.6" y2="916.038" gradientUnits="userSpaceOnUse">
<stop stop-color="white" stop-opacity="0"/>
<stop offset="0.99" stop-color="white"/>
</linearGradient>
<linearGradient id="paint22_linear" x1="17207.1" y1="1213.78" x2="17206.8" y2="912.802" gradientUnits="userSpaceOnUse">
<stop stop-color="white" stop-opacity="0"/>
<stop offset="0.99" stop-color="white"/>
</linearGradient>
<linearGradient id="paint23_linear" x1="9907.81" y1="1270.31" x2="9907.3" y2="955.484" gradientUnits="userSpaceOnUse">
<stop stop-color="white" stop-opacity="0"/>
<stop offset="0.99" stop-color="white"/>
</linearGradient>
<linearGradient id="paint24_linear" x1="12296.7" y1="1288" x2="12296.3" y2="969.39" gradientUnits="userSpaceOnUse">
<stop stop-color="white" stop-opacity="0"/>
<stop offset="0.99" stop-color="white"/>
</linearGradient>
<linearGradient id="paint25_linear" x1="11606.2" y1="1400.67" x2="11605.5" y2="1046.8" gradientUnits="userSpaceOnUse">
<stop stop-color="white" stop-opacity="0"/>
<stop offset="0.99" stop-color="white"/>
</linearGradient>
<linearGradient id="paint26_linear" x1="9417.2" y1="1228.62" x2="9416.71" y2="930.159" gradientUnits="userSpaceOnUse">
<stop stop-color="white" stop-opacity="0"/>
<stop offset="0.99" stop-color="white"/>
</linearGradient>
<linearGradient id="paint27_linear" x1="22185.6" y1="1332.71" x2="22185.4" y2="1001.5" gradientUnits="userSpaceOnUse">
<stop stop-color="white" stop-opacity="0"/>
<stop offset="0.99" stop-color="white"/>
</linearGradient>
<linearGradient id="paint28_linear" x1="311.334" y1="308.122" x2="332.899" y2="308.122" gradientUnits="userSpaceOnUse">
<stop stop-color="#E5C6D6"/>
<stop offset="0.42" stop-color="#EAD4D0"/>
<stop offset="1" stop-color="#F0E9CB"/>
</linearGradient>
<linearGradient id="paint29_linear" x1="5845.24" y1="6530.28" x2="6201.04" y2="6530.28" gradientUnits="userSpaceOnUse">
<stop stop-color="#E5C6D6"/>
<stop offset="0.42" stop-color="#EAD4D0"/>
<stop offset="1" stop-color="#F0E9CB"/>
</linearGradient>
<linearGradient id="paint30_linear" x1="3437.49" y1="2656.86" x2="3513.99" y2="2656.86" gradientUnits="userSpaceOnUse">
<stop stop-color="#E5C6D6"/>
<stop offset="0.42" stop-color="#EAD4D0"/>
<stop offset="1" stop-color="#F0E9CB"/>
</linearGradient>
<linearGradient id="paint31_linear" x1="3117.18" y1="2560.14" x2="3196.9" y2="2560.14" gradientUnits="userSpaceOnUse">
<stop stop-color="#E5C6D6"/>
<stop offset="0.42" stop-color="#EAD4D0"/>
<stop offset="1" stop-color="#F0E9CB"/>
</linearGradient>
<linearGradient id="paint32_linear" x1="6443.34" y1="5098.71" x2="6781.56" y2="5098.71" gradientUnits="userSpaceOnUse">
<stop stop-color="#E5C6D6"/>
<stop offset="0.42" stop-color="#EAD4D0"/>
<stop offset="1" stop-color="#F0E9CB"/>
</linearGradient>
<linearGradient id="paint33_linear" x1="245.584" y1="345.148" x2="312.812" y2="345.148" gradientUnits="userSpaceOnUse">
<stop stop-color="#010101" stop-opacity="0"/>
<stop offset="0.95" stop-color="#010101"/>
</linearGradient>
<linearGradient id="paint34_linear" x1="14319.1" y1="12750" x2="18409" y2="12750" gradientUnits="userSpaceOnUse">
<stop stop-color="#010101" stop-opacity="0"/>
<stop offset="0.95" stop-color="#010101"/>
</linearGradient>
<linearGradient id="paint35_linear" x1="9742.01" y1="4545.01" x2="9730.44" y2="5592.29" gradientUnits="userSpaceOnUse">
<stop stop-color="#010101" stop-opacity="0"/>
<stop offset="0.95" stop-color="#010101"/>
</linearGradient>
<linearGradient id="paint36_linear" x1="8260.42" y1="8554.11" x2="8331.67" y2="7906.46" gradientUnits="userSpaceOnUse">
<stop stop-color="#010101" stop-opacity="0"/>
<stop offset="0.95" stop-color="#010101"/>
</linearGradient>
<linearGradient id="paint37_linear" x1="32019.1" y1="9730.32" x2="32027.9" y2="10877.4" gradientUnits="userSpaceOnUse">
<stop stop-color="#010101" stop-opacity="0"/>
<stop offset="0.95" stop-color="#010101"/>
</linearGradient>
<linearGradient id="paint38_linear" x1="77892.3" y1="13135.4" x2="95208.6" y2="17387.6" gradientUnits="userSpaceOnUse">
<stop stop-color="white" stop-opacity="0"/>
<stop offset="0.95" stop-color="white"/>
</linearGradient>
<linearGradient id="paint39_linear" x1="145.984" y1="191.765" x2="137.235" y2="-1.77623" gradientUnits="userSpaceOnUse">
<stop stop-color="white" stop-opacity="0"/>
<stop offset="0.95" stop-color="white"/>
</linearGradient>
<linearGradient id="paint40_linear" x1="41277.2" y1="-1288.73" x2="41353.9" y2="8924.22" gradientUnits="userSpaceOnUse">
<stop stop-color="white" stop-opacity="0"/>
<stop offset="0.95" stop-color="white"/>
</linearGradient>
<linearGradient id="paint41_linear" x1="6659.49" y1="28306.9" x2="6727.03" y2="34699.7" gradientUnits="userSpaceOnUse">
<stop stop-color="#010101" stop-opacity="0"/>
<stop offset="0.95" stop-color="#010101"/>
</linearGradient>
<linearGradient id="paint42_linear" x1="8335.37" y1="11129" x2="8599.59" y2="12311.3" gradientUnits="userSpaceOnUse">
<stop stop-color="#010101" stop-opacity="0"/>
<stop offset="0.95" stop-color="#010101"/>
</linearGradient>
<linearGradient id="paint43_linear" x1="5706.07" y1="11291.2" x2="5134.07" y2="12499.6" gradientUnits="userSpaceOnUse">
<stop stop-color="#010101" stop-opacity="0"/>
<stop offset="0.95" stop-color="#010101"/>
</linearGradient>
<linearGradient id="paint44_linear" x1="6901.36" y1="14134.6" x2="6069.95" y2="16142.5" gradientUnits="userSpaceOnUse">
<stop stop-color="#010101" stop-opacity="0"/>
<stop offset="0.95" stop-color="#010101"/>
</linearGradient>
<clipPath id="clip0">
<rect width="522" height="504.968" fill="white"/>
</clipPath>
</defs>
</svg>
